<?xml version="1.0" encoding="UTF-8" standalone="no"?>
<svg
   xmlns:dc="http://purl.org/dc/elements/1.1/"
   xmlns:cc="http://creativecommons.org/ns#"
   xmlns:rdf="http://www.w3.org/1999/02/22-rdf-syntax-ns#"
   xmlns:svg="http://www.w3.org/2000/svg"
   xmlns="http://www.w3.org/2000/svg"
   xmlns:sodipodi="http://sodipodi.sourceforge.net/DTD/sodipodi-0.dtd"
   xmlns:inkscape="http://www.inkscape.org/namespaces/inkscape"
   width="1600"
   height="120"
   viewBox="0 0 1600 120"
   version="1.1"
   id="svg2"
   inkscape:version="0.91 r13725"
   sodipodi:docname="logo-black.svg">
  <metadata
     id="metadata18">
    <rdf:RDF>
      <cc:Work
         rdf:about="">
        <dc:format>image/svg+xml</dc:format>
        <dc:type
           rdf:resource="http://purl.org/dc/dcmitype/StillImage" />
        <dc:title>Artboard 4</dc:title>
      </cc:Work>
    </rdf:RDF>
  </metadata>
  <sodipodi:namedview
     pagecolor="#ffffff"
     bordercolor="#666666"
     borderopacity="1"
     objecttolerance="10"
     gridtolerance="10"
     guidetolerance="10"
     inkscape:pageopacity="0"
     inkscape:pageshadow="2"
     inkscape:window-width="1280"
     inkscape:window-height="657"
     id="namedview16"
     showgrid="false"
     inkscape:zoom="0.15319149"
     inkscape:cx="61.362081"
     inkscape:cy="276.07212"
     inkscape:window-x="-8"
     inkscape:window-y="-8"
     inkscape:window-maximized="1"
     inkscape:current-layer="svg2" />
  <!-- Generator: Sketch 48.2 (47327) - http://www.bohemiancoding.com/sketch -->
  <title
     id="title4">Artboard 4</title>
  <desc
     id="desc6">Created with Sketch.</desc>
  <defs
     id="defs8" />
  <g
     id="Page-1"
     inkscape:export-xdpi="90"
     inkscape:export-ydpi="90"
     style="fill:none;fill-rule:evenodd;stroke:none;stroke-width:1"
     transform="translate(-163.86218,-255.28445)">
    <g
       id="Artboard-4"
       style="fill:#000000">
      <g
         id="Group"
         transform="translate(191,262)">
        <path
           d="m 0.4,86 0,-70 32,0 c 8.9,0 15.8,2.5 20.4,7.1 3.9,3.9 6,9.4 6,16 l 0,0.2 c 0,11.3 -6.1,18.4 -15,21.7 l 17.1,25 -18,0 -15,-22.4 -12.1,0 0,22.4 -15.4,0 z m 15.4,-36 15.6,0 c 7.5,0 11.8,-4 11.8,-9.9 l 0,-0.2 c 0,-6.6 -4.6,-10 -12.1,-10 l -15.3,0 0,20.1 z M 96.4,87.2 C 79.8,87.2 67.5,74.9 67.5,59.5 l 0,-0.2 c 0,-15.4 12.4,-27.9 29.1,-27.9 16.6,0 28.9,12.3 28.9,27.7 l 0,0.2 c 0,15.4 -12.4,27.9 -29.1,27.9 z m 0.2,-13.1 c 8.7,0 13.9,-6.7 13.9,-14.6 l 0,-0.2 c 0,-7.9 -5.7,-14.8 -14.1,-14.8 -8.7,0 -13.9,6.7 -13.9,14.6 l 0,0.2 c 0,7.9 5.7,14.8 14.1,14.8 z M 154.3,87 c -11.5,0 -18.2,-7.6 -18.2,-19.9 l 0,-34.7 15.2,0 0,29.9 c 0,7.2 3.4,10.9 9.2,10.9 5.8,0 9.5,-3.7 9.5,-10.9 l 0,-29.9 15.2,0 0,53.6 -15.2,0 0,-7.6 c -3.5,4.5 -8,8.6 -15.7,8.6 z m 62.6,-0.1 c -9.3,0 -15.6,-3.7 -15.6,-16.1 l 0,-25.4 -6.4,0 0,-13 6.4,0 0,-13.7 15.2,0 0,13.7 12.6,0 0,13 -12.6,0 0,22.9 c 0,3.5 1.5,5.2 4.9,5.2 2.8,0 5.3,-0.7 7.5,-1.9 l 0,12.2 c -3.2,1.9 -6.9,3.1 -12,3.1 z m 23.7,-60.4 0,-13.5 16,0 0,13.5 -16,0 z m 0.4,59.5 0,-53.6 15.2,0 0,53.6 -15.2,0 z m 29.5,0 0,-53.6 15.2,0 0,7.6 c 3.5,-4.5 8,-8.6 15.7,-8.6 11.5,0 18.2,7.6 18.2,19.9 l 0,34.7 -15.2,0 0,-29.9 c 0,-7.2 -3.4,-10.9 -9.2,-10.9 -5.8,0 -9.5,3.7 -9.5,10.9 l 0,29.9 -15.2,0 z m 87.7,1.2 c -16.1,0 -28,-11.3 -28,-27.7 l 0,-0.2 c 0,-15.3 10.9,-27.9 26.5,-27.9 17.9,0 26.1,13.9 26.1,29.1 0,1.2 -0.1,2.6 -0.2,4 l -37.3,0 c 1.5,6.9 6.3,10.5 13.1,10.5 5.1,0 8.8,-1.6 13,-5.5 l 8.7,7.7 c -5,6.2 -12.2,10 -21.9,10 z M 345.1,55 368,55 c -0.9,-6.8 -4.9,-11.4 -11.3,-11.4 -6.3,0 -10.4,4.5 -11.6,11.4 z m 84.3,32.2 c -21.8,0 -36.8,-15.3 -36.8,-36 l 0,-0.2 c 0,-19.9 15.5,-36.2 36.7,-36.2 12.6,0 20.2,3.4 27.5,9.6 l -9.7,11.7 C 441.7,31.6 436.9,29 428.8,29 c -11.2,0 -20.1,9.9 -20.1,21.8 l 0,0.2 c 0,12.8 8.8,22.2 21.2,22.2 5.6,0 10.6,-1.4 14.5,-4.2 l 0,-10 -15.5,0 0,-13.3 30.4,0 0,30.4 c -7.2,6.1 -17.1,11.1 -29.9,11.1 z m 68.5,0 c -16.1,0 -28,-11.3 -28,-27.7 l 0,-0.2 c 0,-15.3 10.9,-27.9 26.5,-27.9 17.9,0 26.1,13.9 26.1,29.1 0,1.2 -0.1,2.6 -0.2,4 l -37.3,0 c 1.5,6.9 6.3,10.5 13.1,10.5 5.1,0 8.8,-1.6 13,-5.5 l 8.7,7.7 c -5,6.2 -12.2,10 -21.9,10 z M 484.8,55 l 22.9,0 c -0.9,-6.8 -4.9,-11.4 -11.3,-11.4 -6.3,0 -10.4,4.5 -11.6,11.4 z m 49,31 0,-53.6 15.2,0 0,7.6 c 3.5,-4.5 8,-8.6 15.7,-8.6 11.5,0 18.2,7.6 18.2,19.9 l 0,34.7 -15.2,0 0,-29.9 c 0,-7.2 -3.4,-10.9 -9.2,-10.9 -5.8,0 -9.5,3.7 -9.5,10.9 l 0,29.9 -15.2,0 z"
           id="RoutineGen"
           inkscape:connector-curvature="0" />
        <path
           d="m 691.25,37.35 c 1.26667,-0.300002 2.63333,-0.5 4.1,-0.6 1.46667,-0.100001 2.91666,-0.15 4.35,-0.15 1.53334,0 3.09166,0.149998 4.675,0.45 1.58334,0.300001 3.02499,0.849996 4.325,1.65 1.30001,0.800004 2.35833,1.899993 3.175,3.3 0.81667,1.400007 1.225,3.183323 1.225,5.35 0,2.133344 -0.38333,3.933326 -1.15,5.4 -0.76667,1.466674 -1.78333,2.658329 -3.05,3.575 -1.26667,0.916671 -2.71666,1.574998 -4.35,1.975 -1.63334,0.400002 -3.31666,0.6 -5.05,0.6 l -0.825,0 c -0.38334,0 -0.78333,-0.0083 -1.2,-0.025 -0.41667,-0.01667 -0.825,-0.04167 -1.225,-0.075 -0.4,-0.03333 -0.68333,-0.06667 -0.85,-0.1 l 0,13.3 -4.15,0 0,-34.65 z m 8.55,2.85 c -0.86667,0 -1.7,0.01667 -2.5,0.05 -0.8,0.03333 -1.43333,0.116666 -1.9,0.25 l 0,14.5 c 0.16667,0.06667 0.43333,0.108333 0.8,0.125 0.36667,0.01667 0.75,0.03333 1.15,0.05 0.4,0.01667 0.78333,0.025 1.15,0.025 l 0.8,0 c 1.13334,0 2.25833,-0.108332 3.375,-0.325 1.11667,-0.216668 2.125,-0.608331 3.025,-1.175 0.9,-0.56667 1.625,-1.366661 2.175,-2.4 0.55,-1.033339 0.825,-2.349992 0.825,-3.95 0,-1.366674 -0.25833,-2.508329 -0.775,-3.425 -0.51667,-0.916671 -1.2,-1.649997 -2.05,-2.2 -0.85,-0.550003 -1.80833,-0.941665 -2.875,-1.175 -1.06667,-0.233335 -2.13333,-0.35 -3.2,-0.35 z M 735.25,70 c -1,0.800004 -2.25833,1.433331 -3.775,1.9 -1.51667,0.466669 -3.12499,0.7 -4.825,0.7 -1.90001,0 -3.54999,-0.30833 -4.95,-0.925 -1.40001,-0.61667 -2.55,-1.499994 -3.45,-2.65 -0.9,-1.150006 -1.56666,-2.524992 -2,-4.125 -0.43334,-1.600008 -0.65,-3.39999 -0.65,-5.4 0,-4.266688 0.94999,-7.516656 2.85,-9.75 1.90001,-2.233345 4.61665,-3.35 8.15,-3.35 1.13334,0 2.26666,0.124999 3.4,0.375 1.13334,0.250001 2.15,0.724997 3.05,1.425 0.9,0.700003 1.63333,1.69166 2.2,2.975 0.56667,1.28334 0.85,2.974989 0.85,5.075 0,1.100006 -0.1,2.31666 -0.3,3.65 l -16.05,0 c 0,1.466674 0.15,2.766661 0.45,3.9 0.3,1.133339 0.76666,2.091663 1.4,2.875 0.63334,0.783337 1.45833,1.383331 2.475,1.8 1.01667,0.416669 2.25833,0.625 3.725,0.625 1.13334,0 2.26666,-0.199998 3.4,-0.6 1.13334,-0.400002 1.98333,-0.866664 2.55,-1.4 l 1.5,2.9 z m -8.6,-20.1 c -1.96668,0 -3.54166,0.516661 -4.725,1.55 -1.18334,1.033339 -1.89167,2.799988 -2.125,5.3 l 12.4,0 c 0,-2.533346 -0.48333,-4.308328 -1.45,-5.325 -0.96667,-1.016672 -2.33332,-1.525 -4.1,-1.525 z m 27.55,0.95 c -1.00001,-0.333335 -1.95,-0.5 -2.85,-0.5 -1.43334,0 -2.56666,0.391663 -3.4,1.175 -0.83334,0.783337 -1.35,1.774994 -1.55,2.975 l 0,17.5 -4,0 0,-25 2.8,0 0.75,3.05 0.2,0 c 0.63334,-1.133339 1.39166,-2.00833 2.275,-2.625 0.88334,-0.61667 2.00833,-0.925 3.375,-0.925 0.96667,0 2.04999,0.166665 3.25,0.5 l -0.85,3.85 z m 16.2,14.35 c 0,-1.000005 -0.3,-1.783331 -0.9,-2.35 -0.6,-0.56667 -1.34166,-1.041665 -2.225,-1.425 -0.88334,-0.383335 -1.84999,-0.749998 -2.9,-1.1 -1.05001,-0.350002 -2.01666,-0.799997 -2.9,-1.35 -0.88334,-0.550003 -1.625,-1.258329 -2.225,-2.125 -0.6,-0.866671 -0.9,-2.033326 -0.9,-3.5 0,-2.400012 0.68333,-4.158328 2.05,-5.275 1.36667,-1.116672 3.26665,-1.675 5.7,-1.675 1.80001,0 3.30833,0.158332 4.525,0.475 1.21667,0.316668 2.275,0.691665 3.175,1.125 l -0.95,3.3 c -0.76667,-0.366668 -1.69166,-0.691665 -2.775,-0.975 -1.08334,-0.283335 -2.24166,-0.425 -3.475,-0.425 -1.46667,0 -2.54166,0.249997 -3.225,0.75 -0.68334,0.500002 -1.025,1.36666 -1.025,2.6 0,0.866671 0.3,1.541664 0.9,2.025 0.6,0.483336 1.34166,0.916665 2.225,1.3 0.88334,0.383335 1.84999,0.758331 2.9,1.125 1.05001,0.366668 2.01666,0.849997 2.9,1.45 0.88334,0.600003 1.625,1.358329 2.225,2.275 0.6,0.916671 0.9,2.124993 0.9,3.625 0,1.066672 -0.175,2.066662 -0.525,3 -0.35,0.933338 -0.89166,1.73333 -1.625,2.4 -0.73334,0.66667 -1.64166,1.191665 -2.725,1.575 -1.08334,0.383335 -2.35833,0.575 -3.825,0.575 -1.90001,0 -3.51666,-0.183332 -4.85,-0.55 -1.33334,-0.366669 -2.45,-0.799998 -3.35,-1.3 l 1.2,-3.4 c 0.76667,0.433336 1.76666,0.833331 3,1.2 1.23334,0.366668 2.48333,0.55 3.75,0.55 1.43334,0 2.61666,-0.28333 3.55,-0.85 0.93334,-0.56667 1.4,-1.583326 1.4,-3.05 z m 8.65,-5.7 c 0,-4.233354 0.94166,-7.474989 2.825,-9.725 1.88334,-2.250011 4.59165,-3.375 8.125,-3.375 1.86668,0 3.49166,0.30833 4.875,0.925 1.38334,0.61667 2.525,1.499994 3.425,2.65 0.9,1.150006 1.56666,2.533325 2,4.15 0.43334,1.616675 0.65,3.408324 0.65,5.375 0,4.233354 -0.94166,7.474989 -2.825,9.725 -1.88334,2.250011 -4.59165,3.375 -8.125,3.375 -1.86668,0 -3.49166,-0.30833 -4.875,-0.925 -1.38334,-0.61667 -2.525,-1.499994 -3.425,-2.65 -0.9,-1.150006 -1.56666,-2.533325 -2,-4.15 -0.43334,-1.616675 -0.65,-3.408324 -0.65,-5.375 z m 4.15,0 c 0,1.266673 0.125,2.483328 0.375,3.65 0.25,1.166672 0.64166,2.183329 1.175,3.05 0.53334,0.866671 1.23333,1.566664 2.1,2.1 0.86667,0.533336 1.91666,0.8 3.15,0.8 4.53336,0.03333 6.8,-3.166635 6.8,-9.6 0,-1.300007 -0.125,-2.533327 -0.375,-3.7 -0.25,-1.166673 -0.64166,-2.183329 -1.175,-3.05 -0.53334,-0.866671 -1.23333,-1.558331 -2.1,-2.075 -0.86667,-0.516669 -1.91666,-0.775 -3.15,-0.775 -4.53336,-0.03333 -6.8,3.166634 -6.8,9.6 z m 40.1,12.5 0,-14.25 c 0,-2.600013 -0.375,-4.558327 -1.125,-5.875 -0.75,-1.316673 -2.12499,-1.975 -4.125,-1.975 -1.76668,0 -3.22499,0.474995 -4.375,1.425 -1.15001,0.950005 -1.95833,2.141659 -2.425,3.575 l 0,17.1 -4,0 0,-25 2.8,0 0.75,3.05 0.2,0 c 0.8,-1.066672 1.87499,-1.941663 3.225,-2.625 1.35001,-0.683337 2.95832,-1.025 4.825,-1.025 1.36667,0 2.56666,0.158332 3.6,0.475 1.03334,0.316668 1.89166,0.874996 2.575,1.675 0.68334,0.800004 1.2,1.874993 1.55,3.225 0.35,1.350007 0.525,3.058323 0.525,5.125 l 0,15.1 -4,0 z m 10.9,-23.15 c 1.26667,-0.766671 2.74166,-1.333331 4.425,-1.7 1.68334,-0.366668 3.44166,-0.55 5.275,-0.55 1.73334,0 3.12499,0.233331 4.175,0.7 1.05,0.466669 1.85,1.074996 2.4,1.825 0.55,0.750004 0.91667,1.574995 1.1,2.475 0.18333,0.900005 0.275,1.799996 0.275,2.7 0,2.00001 -0.05,3.949991 -0.15,5.85 -0.1,1.90001 -0.15,3.699992 -0.15,5.4 0,1.233339 0.05,2.399995 0.15,3.5 0.1,1.100006 0.28333,2.116662 0.55,3.05 l -2.95,0 -1.05,-3.5 -0.25,0 c -0.3,0.466669 -0.675,0.924998 -1.125,1.375 -0.45,0.450002 -0.99166,0.849998 -1.625,1.2 -0.63334,0.350002 -1.36666,0.641665 -2.2,0.875 -0.83334,0.233334 -1.78333,0.35 -2.85,0.35 -1.06667,0 -2.05833,-0.166665 -2.975,-0.5 -0.91667,-0.333335 -1.70833,-0.80833 -2.375,-1.425 -0.66667,-0.61667 -1.19167,-1.358329 -1.575,-2.225 -0.38334,-0.866671 -0.575,-1.849994 -0.575,-2.95 0,-1.466674 0.3,-2.691662 0.9,-3.675 0.6,-0.983338 1.44166,-1.766664 2.525,-2.35 1.08334,-0.583336 2.38333,-0.999999 3.9,-1.25 1.51667,-0.250001 3.19166,-0.375 5.025,-0.375 l 1.375,0 c 0.45,0 0.90833,0.03333 1.375,0.1 0.1,-1.000005 0.15,-1.899996 0.15,-2.7 0,-1.833343 -0.36666,-3.116663 -1.1,-3.85 -0.73334,-0.733337 -2.06666,-1.1 -4,-1.1 -0.56667,0 -1.175,0.04167 -1.825,0.125 -0.65,0.08333 -1.31666,0.199999 -2,0.35 -0.68334,0.150001 -1.33333,0.333332 -1.95,0.55 -0.61667,0.216668 -1.15833,0.458332 -1.625,0.725 l -1.25,-3 z m 7.1,20.05 c 0.93334,0 1.76666,-0.124999 2.5,-0.375 0.73334,-0.250001 1.36666,-0.566665 1.9,-0.95 0.53334,-0.383335 0.975,-0.808331 1.325,-1.275 0.35,-0.466669 0.60833,-0.916665 0.775,-1.35 l 0,-4.15 c -0.46667,-0.03333 -0.94166,-0.05833 -1.425,-0.075 -0.48334,-0.01667 -0.95833,-0.025 -1.425,-0.025 -1.03334,0 -2.04166,0.05833 -3.025,0.175 -0.98334,0.116667 -1.85,0.333332 -2.6,0.65 -0.75,0.316668 -1.35,0.749997 -1.8,1.3 -0.45,0.550003 -0.675,1.241663 -0.675,2.075 0,1.166672 0.41666,2.124996 1.25,2.875 0.83334,0.750004 1.89999,1.125 3.2,1.125 z m 22.55,-3.05 c 0,1.166672 0.2,1.999997 0.6,2.5 0.4,0.500003 0.96666,0.75 1.7,0.75 0.43334,0 0.9,-0.03333 1.4,-0.1 0.5,-0.06667 1.06666,-0.216666 1.7,-0.45 l 0.45,3.15 c -0.53334,0.266668 -1.27499,0.483333 -2.225,0.65 -0.95001,0.166667 -1.775,0.25 -2.475,0.25 -1.50001,0 -2.73333,-0.424996 -3.7,-1.275 -0.96667,-0.850004 -1.45,-2.291657 -1.45,-4.325 l 0,-30 4,0 0,28.85 z m 11,-18.85 4,0 0,25 -4,0 0,-25 z M 874,39.4 c 0,-0.76667 0.25833,-1.424997 0.775,-1.975 0.51667,-0.550003 1.175,-0.825 1.975,-0.825 0.8,0 1.48333,0.274997 2.05,0.825 0.56667,0.550003 0.85,1.20833 0.85,1.975 0,0.766671 -0.28333,1.399998 -0.85,1.9 -0.56667,0.500002 -1.25,0.75 -2.05,0.75 -0.8,0 -1.45833,-0.249998 -1.975,-0.75 C 874.25833,40.799998 874,40.166671 874,39.4 Z m 11.65,29.1 11.55,-15.9 2.1,-2.1 -13.65,0 0,-3.5 17.8,0 0,3.5 -11.65,16.05 -2.05,1.95 13.7,0 0,3.5 -17.8,0 0,-3.5 z M 927.2,70 c -1.00001,0.800004 -2.25833,1.433331 -3.775,1.9 -1.51667,0.466669 -3.12499,0.7 -4.825,0.7 -1.90001,0 -3.54999,-0.30833 -4.95,-0.925 -1.40001,-0.61667 -2.55,-1.499994 -3.45,-2.65 -0.9,-1.150006 -1.56666,-2.524992 -2,-4.125 -0.43334,-1.600008 -0.65,-3.39999 -0.65,-5.4 0,-4.266688 0.94999,-7.516656 2.85,-9.75 1.90001,-2.233345 4.61665,-3.35 8.15,-3.35 1.13334,0 2.26666,0.124999 3.4,0.375 1.13334,0.250001 2.15,0.724997 3.05,1.425 0.9,0.700003 1.63333,1.69166 2.2,2.975 0.56667,1.28334 0.85,2.974989 0.85,5.075 0,1.100006 -0.1,2.31666 -0.3,3.65 l -16.05,0 c 0,1.466674 0.15,2.766661 0.45,3.9 0.3,1.133339 0.76666,2.091663 1.4,2.875 0.63334,0.783337 1.45833,1.383331 2.475,1.8 1.01667,0.416669 2.25833,0.625 3.725,0.625 1.13334,0 2.26666,-0.199998 3.4,-0.6 1.13334,-0.400002 1.98333,-0.866664 2.55,-1.4 l 1.5,2.9 z m -8.6,-20.1 c -1.96668,0 -3.54166,0.516661 -4.725,1.55 -1.18334,1.033339 -1.89167,2.799988 -2.125,5.3 l 12.4,0 c 0,-2.533346 -0.48333,-4.308328 -1.45,-5.325 -0.96667,-1.016672 -2.33333,-1.525 -4.1,-1.525 z m 34.95,13.5 c 0,1.700009 0.0167,3.24166 0.05,4.625 0.0333,1.38334 0.18333,2.74166 0.45,4.075 l -2.7,0 -1,-3.55 -0.2,0 c -0.66667,1.166673 -1.63333,2.133329 -2.9,2.9 -1.26667,0.766671 -2.74999,1.15 -4.45,1.15 -3.33335,0 -5.80833,-1.04999 -7.425,-3.15 -1.61667,-2.10001 -2.425,-5.383311 -2.425,-9.85 0,-4.266688 1.00832,-7.508322 3.025,-9.725 2.01668,-2.216678 4.79165,-3.325 8.325,-3.325 1.23334,0 2.20833,0.06667 2.925,0.2 0.71667,0.133334 1.49166,0.349998 2.325,0.65 l 0,-10.4 4,0 0,26.4 z m -10.1,5.7 c 1.70001,0 3.05,-0.441662 4.05,-1.325 1,-0.883338 1.68333,-2.224991 2.05,-4.025 l 0,-12.4 c -0.6,-0.466669 -1.28333,-0.799999 -2.05,-1 -0.76667,-0.200001 -1.78333,-0.3 -3.05,-0.3 -2.30001,0 -4.09999,0.758326 -5.4,2.275 -1.30001,1.516674 -1.95,3.94165 -1.95,7.275 0,1.366673 0.10833,2.633328 0.325,3.8 0.21667,1.166672 0.575,2.166663 1.075,3 0.5,0.833338 1.15833,1.491664 1.975,1.975 0.81667,0.483336 1.80833,0.725 2.975,0.725 z M 971.3,47 l 3.9,0 0,-4.95 4,-1.15 0,6.1 6.8,0 0,3.5 -6.8,0 0,13.85 c 0,1.733342 0.21666,2.95833 0.65,3.675 0.43334,0.71667 1.16666,1.075 2.2,1.075 0.86667,0 1.6,-0.09167 2.2,-0.275 0.6,-0.183334 1.26666,-0.424998 2,-0.725 l 0.9,3.05 c -0.9,0.433336 -1.88333,0.783332 -2.95,1.05 -1.06667,0.266668 -2.21666,0.4 -3.45,0.4 -2.03334,0 -3.46666,-0.574994 -4.3,-1.725 -0.83334,-1.150006 -1.25,-3.074986 -1.25,-5.775 l 0,-14.6 -3.9,0 0,-3.5 z m 32.05,3.85 c -1,-0.333335 -1.95,-0.5 -2.85,-0.5 -1.43334,0 -2.56666,0.391663 -3.4,1.175 -0.83334,0.783337 -1.35,1.774994 -1.55,2.975 l 0,17.5 -4,0 0,-25 2.8,0 0.75,3.05 0.2,0 c 0.63334,-1.133339 1.39166,-2.00833 2.275,-2.625 0.88334,-0.61667 2.00833,-0.925 3.375,-0.925 0.9667,0 2.05,0.166665 3.25,0.5 l -0.85,3.85 z m 4.8,-2 c 1.2667,-0.766671 2.7417,-1.333331 4.425,-1.7 1.6833,-0.366668 3.4417,-0.55 5.275,-0.55 1.7333,0 3.125,0.233331 4.175,0.7 1.05,0.466669 1.85,1.074996 2.4,1.825 0.55,0.750004 0.9167,1.574995 1.1,2.475 0.1833,0.900005 0.275,1.799996 0.275,2.7 0,2.00001 -0.05,3.949991 -0.15,5.85 -0.1,1.90001 -0.15,3.699992 -0.15,5.4 0,1.233339 0.05,2.399995 0.15,3.5 0.1,1.100006 0.2833,2.116662 0.55,3.05 l -2.95,0 -1.05,-3.5 -0.25,0 c -0.3,0.466669 -0.675,0.924998 -1.125,1.375 -0.45,0.450002 -0.9917,0.849998 -1.625,1.2 -0.6333,0.350002 -1.3667,0.641665 -2.2,0.875 -0.8333,0.233334 -1.7833,0.35 -2.85,0.35 -1.0667,0 -2.0583,-0.166665 -2.975,-0.5 -0.9167,-0.333335 -1.7083,-0.80833 -2.375,-1.425 -0.6667,-0.61667 -1.1917,-1.358329 -1.575,-2.225 -0.3833,-0.866671 -0.575,-1.849994 -0.575,-2.95 0,-1.466674 0.3,-2.691662 0.9,-3.675 0.6,-0.983338 1.4417,-1.766664 2.525,-2.35 1.0833,-0.583336 2.3833,-0.999999 3.9,-1.25 1.5167,-0.250001 3.1917,-0.375 5.025,-0.375 l 1.375,0 c 0.45,0 0.9083,0.03333 1.375,0.1 0.1,-1.000005 0.15,-1.899996 0.15,-2.7 0,-1.833343 -0.3667,-3.116663 -1.1,-3.85 -0.7333,-0.733337 -2.0667,-1.1 -4,-1.1 -0.5667,0 -1.175,0.04167 -1.825,0.125 -0.65,0.08333 -1.3167,0.199999 -2,0.35 -0.6833,0.150001 -1.3333,0.333332 -1.95,0.55 -0.6167,0.216668 -1.1583,0.458332 -1.625,0.725 l -1.25,-3 z m 7.1,20.05 c 0.9333,0 1.7667,-0.124999 2.5,-0.375 0.7333,-0.250001 1.3667,-0.566665 1.9,-0.95 0.5333,-0.383335 0.975,-0.808331 1.325,-1.275 0.35,-0.466669 0.6083,-0.916665 0.775,-1.35 l 0,-4.15 c -0.4667,-0.03333 -0.9417,-0.05833 -1.425,-0.075 -0.4833,-0.01667 -0.9583,-0.025 -1.425,-0.025 -1.0333,0 -2.0417,0.05833 -3.025,0.175 -0.9833,0.116667 -1.85,0.333332 -2.6,0.65 -0.75,0.316668 -1.35,0.749997 -1.8,1.3 -0.45,0.550003 -0.675,1.241663 -0.675,2.075 0,1.166672 0.4167,2.124996 1.25,2.875 0.8333,0.750004 1.9,1.125 3.2,1.125 z m 18.95,-21.9 4,0 0,25 -4,0 0,-25 z m -0.85,-7.6 c 0,-0.76667 0.2583,-1.424997 0.775,-1.975 0.5167,-0.550003 1.175,-0.825 1.975,-0.825 0.8,0 1.4833,0.274997 2.05,0.825 0.5667,0.550003 0.85,1.20833 0.85,1.975 0,0.766671 -0.2833,1.399998 -0.85,1.9 -0.5667,0.500002 -1.25,0.75 -2.05,0.75 -0.8,0 -1.4583,-0.249998 -1.975,-0.75 -0.5167,-0.500002 -0.775,-1.133329 -0.775,-1.9 z m 29.45,32.6 0,-14.25 c 0,-2.600013 -0.375,-4.558327 -1.125,-5.875 -0.75,-1.316673 -2.125,-1.975 -4.125,-1.975 -1.7667,0 -3.225,0.474995 -4.375,1.425 -1.15,0.950005 -1.9583,2.141659 -2.425,3.575 l 0,17.1 -4,0 0,-25 2.8,0 0.75,3.05 0.2,0 c 0.8,-1.066672 1.875,-1.941663 3.225,-2.625 1.35,-0.683337 2.9583,-1.025 4.825,-1.025 1.3667,0 2.5667,0.158332 3.6,0.475 1.0333,0.316668 1.8917,0.874996 2.575,1.675 0.6833,0.800004 1.2,1.874993 1.55,3.225 0.35,1.350007 0.525,3.058323 0.525,5.125 l 0,15.1 -4,0 z m 12.15,-25 4,0 0,25 -4,0 0,-25 z m -0.85,-7.6 c 0,-0.76667 0.2583,-1.424997 0.775,-1.975 0.5167,-0.550003 1.175,-0.825 1.975,-0.825 0.8,0 1.4833,0.274997 2.05,0.825 0.5667,0.550003 0.85,1.20833 0.85,1.975 0,0.766671 -0.2833,1.399998 -0.85,1.9 -0.5667,0.500002 -1.25,0.75 -2.05,0.75 -0.8,0 -1.4583,-0.249998 -1.975,-0.75 -0.5167,-0.500002 -0.775,-1.133329 -0.775,-1.9 z m 29.45,32.6 0,-14.25 c 0,-2.600013 -0.375,-4.558327 -1.125,-5.875 -0.75,-1.316673 -2.125,-1.975 -4.125,-1.975 -1.7667,0 -3.225,0.474995 -4.375,1.425 -1.15,0.950005 -1.9583,2.141659 -2.425,3.575 l 0,17.1 -4,0 0,-25 2.8,0 0.75,3.05 0.2,0 c 0.8,-1.066672 1.875,-1.941663 3.225,-2.625 1.35,-0.683337 2.9583,-1.025 4.825,-1.025 1.3667,0 2.5667,0.158332 3.6,0.475 1.0333,0.316668 1.8917,0.874996 2.575,1.675 0.6833,0.800004 1.2,1.874993 1.55,3.225 0.35,1.350007 0.525,3.058323 0.525,5.125 l 0,15.1 -4,0 z m 30.45,1.15 c 0,3.233349 -0.8583,5.616659 -2.575,7.15 -1.7167,1.533341 -4.2583,2.3 -7.625,2.3 -2,0 -3.6083,-0.124999 -4.825,-0.375 -1.2167,-0.250001 -2.2583,-0.574998 -3.125,-0.975 l 1.05,-3.4 c 0.7667,0.300002 1.6167,0.583332 2.55,0.85 0.9333,0.266668 2.15,0.4 3.65,0.4 1.4,0 2.5417,-0.124999 3.425,-0.375 0.8833,-0.250001 1.5917,-0.666664 2.125,-1.25 0.5333,-0.583336 0.9,-1.333329 1.1,-2.25 0.2,-0.916671 0.3,-2.008327 0.3,-3.275 l 0,-2.4 -0.2,0 c -0.6667,0.966671 -1.5167,1.708331 -2.55,2.225 -1.0333,0.516669 -2.3833,0.775 -4.05,0.775 -3.3667,0 -5.8417,-1.049989 -7.425,-3.15 -1.5833,-2.100011 -2.375,-5.366645 -2.375,-9.8 0,-4.266688 1.0167,-7.508322 3.05,-9.725 2.0333,-2.216678 5.0333,-3.325 9,-3.325 1.9,0 3.525,0.149998 4.875,0.45 1.35,0.300001 2.5583,0.649998 3.625,1.05 l 0,25.1 z m -10.05,-4.1 c 1.7,0 3.0333,-0.424996 4,-1.275 0.9667,-0.850004 1.65,-2.174991 2.05,-3.975 l 0,-12.8 c -1.3333,-0.633336 -3.0333,-0.95 -5.1,-0.95 -2.2667,0 -4.05,0.766659 -5.35,2.3 -1.3,1.533341 -1.95,3.933317 -1.95,7.2 0,1.400007 0.1167,2.683328 0.35,3.85 0.2333,1.166672 0.6,2.166663 1.1,3 0.5,0.833338 1.15,1.483331 1.95,1.95 0.8,0.466669 1.7833,0.7 2.95,0.7 z m 42.9,-18.2 c -1,-0.333335 -1.95,-0.5 -2.85,-0.5 -1.4333,0 -2.5667,0.391663 -3.4,1.175 -0.8333,0.783337 -1.35,1.774994 -1.55,2.975 l 0,17.5 -4,0 0,-25 2.8,0 0.75,3.05 0.2,0 c 0.6333,-1.133339 1.3917,-2.00833 2.275,-2.625 0.8833,-0.61667 2.0083,-0.925 3.375,-0.925 0.9667,0 2.05,0.166665 3.25,0.5 l -0.85,3.85 z m 3.8,8.65 c 0,-4.233354 0.9417,-7.474989 2.825,-9.725 1.8833,-2.250011 4.5917,-3.375 8.125,-3.375 1.8667,0 3.4917,0.30833 4.875,0.925 1.3833,0.61667 2.525,1.499994 3.425,2.65 0.9,1.150006 1.5667,2.533325 2,4.15 0.4333,1.616675 0.65,3.408324 0.65,5.375 0,4.233354 -0.9417,7.474989 -2.825,9.725 -1.8833,2.250011 -4.5916,3.375 -8.125,3.375 -1.8667,0 -3.4917,-0.30833 -4.875,-0.925 -1.3833,-0.61667 -2.525,-1.499994 -3.425,-2.65 -0.9,-1.150006 -1.5667,-2.533325 -2,-4.15 -0.4333,-1.616675 -0.65,-3.408324 -0.65,-5.375 z m 4.15,0 c 0,1.266673 0.125,2.483328 0.375,3.65 0.25,1.166672 0.6417,2.183329 1.175,3.05 0.5333,0.866671 1.2333,1.566664 2.1,2.1 0.8667,0.533336 1.9167,0.8 3.15,0.8 4.5334,0.03333 6.8,-3.166635 6.8,-9.6 0,-1.300007 -0.125,-2.533327 -0.375,-3.7 -0.25,-1.166673 -0.6417,-2.183329 -1.175,-3.05 -0.5333,-0.866671 -1.2333,-1.558331 -2.1,-2.075 -0.8667,-0.516669 -1.9167,-0.775 -3.15,-0.775 -4.5334,-0.03333 -6.8,3.166634 -6.8,9.6 z m 27.65,-12.5 0,14.25 c 0,1.300007 0.075,2.441662 0.225,3.425 0.15,0.983338 0.4083,1.799997 0.775,2.45 0.3667,0.650003 0.8667,1.141665 1.5,1.475 0.6333,0.333335 1.4333,0.5 2.4,0.5 0.9,0 1.7,-0.141665 2.4,-0.425 0.7,-0.283335 1.325,-0.674998 1.875,-1.175 0.55,-0.500002 1.0333,-1.074997 1.45,-1.725 0.4167,-0.650003 0.7583,-1.341663 1.025,-2.075 l 0,-16.7 4,0 0,17.9 c 0,1.200006 0.042,2.44166 0.125,3.725 0.083,1.28334 0.225,2.408328 0.425,3.375 l -2.75,0 -1,-3.95 -0.25,0 c -0.7667,1.300007 -1.8,2.383329 -3.1,3.25 -1.3,0.866671 -2.95,1.3 -4.95,1.3 -1.3333,0 -2.5083,-0.158332 -3.525,-0.475 -1.0167,-0.316668 -1.8667,-0.874996 -2.55,-1.675 -0.6833,-0.800004 -1.2,-1.874993 -1.55,-3.225 -0.35,-1.350007 -0.525,-3.058323 -0.525,-5.125 l 0,-15.1 4,0 z m 20.05,0 3.9,0 0,-4.95 4,-1.15 0,6.1 6.8,0 0,3.5 -6.8,0 0,13.85 c 0,1.733342 0.2167,2.95833 0.65,3.675 0.4333,0.71667 1.1667,1.075 2.2,1.075 0.8667,0 1.6,-0.09167 2.2,-0.275 0.6,-0.183334 1.2667,-0.424998 2,-0.725 l 0.9,3.05 c -0.9,0.433336 -1.8833,0.783332 -2.95,1.05 -1.0667,0.266668 -2.2167,0.4 -3.45,0.4 -2.0333,0 -3.4667,-0.574994 -4.3,-1.725 -0.8333,-1.150006 -1.25,-3.074986 -1.25,-5.775 l 0,-14.6 -3.9,0 0,-3.5 z m 21.1,0 4,0 0,25 -4,0 0,-25 z m -0.85,-7.6 c 0,-0.76667 0.2583,-1.424997 0.775,-1.975 0.5167,-0.550003 1.175,-0.825 1.975,-0.825 0.8,0 1.4833,0.274997 2.05,0.825 0.5667,0.550003 0.85,1.20833 0.85,1.975 0,0.766671 -0.2833,1.399998 -0.85,1.9 -0.5667,0.500002 -1.25,0.75 -2.05,0.75 -0.8,0 -1.4583,-0.249998 -1.975,-0.75 -0.5167,-0.500002 -0.775,-1.133329 -0.775,-1.9 z m 29.45,32.6 0,-14.25 c 0,-2.600013 -0.375,-4.558327 -1.125,-5.875 -0.75,-1.316673 -2.125,-1.975 -4.125,-1.975 -1.7667,0 -3.225,0.474995 -4.375,1.425 -1.15,0.950005 -1.9583,2.141659 -2.425,3.575 l 0,17.1 -4,0 0,-25 2.8,0 0.75,3.05 0.2,0 c 0.8,-1.066672 1.875,-1.941663 3.225,-2.625 1.35,-0.683337 2.9583,-1.025 4.825,-1.025 1.3667,0 2.5667,0.158332 3.6,0.475 1.0333,0.316668 1.8917,0.874996 2.575,1.675 0.6833,0.800004 1.2,1.874993 1.55,3.225 0.35,1.350007 0.525,3.058323 0.525,5.125 l 0,15.1 -4,0 z m 29.55,-2 c -1,0.800004 -2.2583,1.433331 -3.775,1.9 -1.5167,0.466669 -3.125,0.7 -4.825,0.7 -1.9,0 -3.55,-0.30833 -4.95,-0.925 -1.4,-0.61667 -2.55,-1.499994 -3.45,-2.65 -0.9,-1.150006 -1.5667,-2.524992 -2,-4.125 -0.4333,-1.600008 -0.65,-3.39999 -0.65,-5.4 0,-4.266688 0.95,-7.516656 2.85,-9.75 1.9,-2.233345 4.6167,-3.35 8.15,-3.35 1.1333,0 2.2667,0.124999 3.4,0.375 1.1333,0.250001 2.15,0.724997 3.05,1.425 0.9,0.700003 1.6333,1.69166 2.2,2.975 0.5667,1.28334 0.85,2.974989 0.85,5.075 0,1.100006 -0.1,2.31666 -0.3,3.65 l -16.05,0 c 0,1.466674 0.15,2.766661 0.45,3.9 0.3,1.133339 0.7667,2.091663 1.4,2.875 0.6333,0.783337 1.4583,1.383331 2.475,1.8 1.0167,0.416669 2.2583,0.625 3.725,0.625 1.1333,0 2.2667,-0.199998 3.4,-0.6 1.1333,-0.400002 1.9833,-0.866664 2.55,-1.4 l 1.5,2.9 z m -8.6,-20.1 c -1.9667,0 -3.5417,0.516661 -4.725,1.55 -1.1833,1.033339 -1.8917,2.799988 -2.125,5.3 l 12.4,0 c 0,-2.533346 -0.4833,-4.308328 -1.45,-5.325 -0.9667,-1.016672 -2.3333,-1.525 -4.1,-1.525 z m 48.25,23.25 c 0,3.233349 -0.8583,5.616659 -2.575,7.15 -1.7167,1.533341 -4.2583,2.3 -7.625,2.3 -2,0 -3.6083,-0.124999 -4.825,-0.375 -1.2167,-0.250001 -2.2583,-0.574998 -3.125,-0.975 l 1.05,-3.4 c 0.7667,0.300002 1.6167,0.583332 2.55,0.85 0.9333,0.266668 2.15,0.4 3.65,0.4 1.4,0 2.5417,-0.124999 3.425,-0.375 0.8833,-0.250001 1.5917,-0.666664 2.125,-1.25 0.5333,-0.583336 0.9,-1.333329 1.1,-2.25 0.2,-0.916671 0.3,-2.008327 0.3,-3.275 l 0,-2.4 -0.2,0 c -0.6667,0.966671 -1.5167,1.708331 -2.55,2.225 -1.0333,0.516669 -2.3833,0.775 -4.05,0.775 -3.3667,0 -5.8417,-1.049989 -7.425,-3.15 -1.5833,-2.100011 -2.375,-5.366645 -2.375,-9.8 0,-4.266688 1.0167,-7.508322 3.05,-9.725 2.0333,-2.216678 5.0333,-3.325 9,-3.325 1.9,0 3.525,0.149998 4.875,0.45 1.35,0.300001 2.5583,0.649998 3.625,1.05 l 0,25.1 z m -10.05,-4.1 c 1.7,0 3.0333,-0.424996 4,-1.275 0.9667,-0.850004 1.65,-2.174991 2.05,-3.975 l 0,-12.8 c -1.3333,-0.633336 -3.0333,-0.95 -5.1,-0.95 -2.2667,0 -4.05,0.766659 -5.35,2.3 -1.3,1.533341 -1.95,3.933317 -1.95,7.2 0,1.400007 0.1167,2.683328 0.35,3.85 0.2333,1.166672 0.6,2.166663 1.1,3 0.5,0.833338 1.15,1.483331 1.95,1.95 0.8,0.466669 1.7833,0.7 2.95,0.7 z m 36,0.95 c -1,0.800004 -2.2583,1.433331 -3.775,1.9 -1.5167,0.466669 -3.125,0.7 -4.825,0.7 -1.9,0 -3.55,-0.30833 -4.95,-0.925 -1.4,-0.61667 -2.55,-1.499994 -3.45,-2.65 -0.9,-1.150006 -1.5667,-2.524992 -2,-4.125 -0.4333,-1.600008 -0.65,-3.39999 -0.65,-5.4 0,-4.266688 0.95,-7.516656 2.85,-9.75 1.9,-2.233345 4.6166,-3.35 8.15,-3.35 1.1333,0 2.2667,0.124999 3.4,0.375 1.1333,0.250001 2.15,0.724997 3.05,1.425 0.9,0.700003 1.6333,1.69166 2.2,2.975 0.5667,1.28334 0.85,2.974989 0.85,5.075 0,1.100006 -0.1,2.31666 -0.3,3.65 l -16.05,0 c 0,1.466674 0.15,2.766661 0.45,3.9 0.3,1.133339 0.7667,2.091663 1.4,2.875 0.6333,0.783337 1.4583,1.383331 2.475,1.8 1.0167,0.416669 2.2583,0.625 3.725,0.625 1.1333,0 2.2667,-0.199998 3.4,-0.6 1.1333,-0.400002 1.9833,-0.866664 2.55,-1.4 l 1.5,2.9 z m -8.6,-20.1 c -1.9667,0 -3.5417,0.516661 -4.725,1.55 -1.1833,1.033339 -1.8917,2.799988 -2.125,5.3 l 12.4,0 c 0,-2.533346 -0.4833,-4.308328 -1.45,-5.325 -0.9667,-1.016672 -2.3333,-1.525 -4.1,-1.525 z m 31.8,22.1 0,-14.25 c 0,-2.600013 -0.375,-4.558327 -1.125,-5.875 -0.75,-1.316673 -2.125,-1.975 -4.125,-1.975 -1.7667,0 -3.225,0.474995 -4.375,1.425 -1.15,0.950005 -1.9583,2.141659 -2.425,3.575 l 0,17.1 -4,0 0,-25 2.8,0 0.75,3.05 0.2,0 c 0.8,-1.066672 1.875,-1.941663 3.225,-2.625 1.35,-0.683337 2.9583,-1.025 4.825,-1.025 1.3667,0 2.5667,0.158332 3.6,0.475 1.0333,0.316668 1.8917,0.874996 2.575,1.675 0.6833,0.800004 1.2,1.874993 1.55,3.225 0.35,1.350007 0.525,3.058323 0.525,5.125 l 0,15.1 -4,0 z m 29.55,-2 c -1,0.800004 -2.2583,1.433331 -3.775,1.9 -1.5167,0.466669 -3.125,0.7 -4.825,0.7 -1.9,0 -3.55,-0.30833 -4.95,-0.925 -1.4,-0.61667 -2.55,-1.499994 -3.45,-2.65 -0.9,-1.150006 -1.5667,-2.524992 -2,-4.125 -0.4333,-1.600008 -0.65,-3.39999 -0.65,-5.4 0,-4.266688 0.95,-7.516656 2.85,-9.75 1.9,-2.233345 4.6166,-3.35 8.15,-3.35 1.1333,0 2.2667,0.124999 3.4,0.375 1.1333,0.250001 2.15,0.724997 3.05,1.425 0.9,0.700003 1.6333,1.69166 2.2,2.975 0.5667,1.28334 0.85,2.974989 0.85,5.075 0,1.100006 -0.1,2.31666 -0.3,3.65 l -16.05,0 c 0,1.466674 0.15,2.766661 0.45,3.9 0.3,1.133339 0.7667,2.091663 1.4,2.875 0.6333,0.783337 1.4583,1.383331 2.475,1.8 1.0167,0.416669 2.2583,0.625 3.725,0.625 1.1333,0 2.2667,-0.199998 3.4,-0.6 1.1333,-0.400002 1.9833,-0.866664 2.55,-1.4 l 1.5,2.9 z m -8.6,-20.1 c -1.9667,0 -3.5417,0.516661 -4.725,1.55 -1.1833,1.033339 -1.8917,2.799988 -2.125,5.3 l 12.4,0 c 0,-2.533346 -0.4833,-4.308328 -1.45,-5.325 -0.9667,-1.016672 -2.3333,-1.525 -4.1,-1.525 z m 27.55,0.95 c -1,-0.333335 -1.95,-0.5 -2.85,-0.5 -1.4333,0 -2.5667,0.391663 -3.4,1.175 -0.8333,0.783337 -1.35,1.774994 -1.55,2.975 l 0,17.5 -4,0 0,-25 2.8,0 0.75,3.05 0.2,0 c 0.6333,-1.133339 1.3917,-2.00833 2.275,-2.625 0.8833,-0.61667 2.0083,-0.925 3.375,-0.925 0.9667,0 2.05,0.166665 3.25,0.5 l -0.85,3.85 z m 4.8,-2 c 1.2667,-0.766671 2.7417,-1.333331 4.425,-1.7 1.6833,-0.366668 3.4417,-0.55 5.275,-0.55 1.7333,0 3.125,0.233331 4.175,0.7 1.05,0.466669 1.85,1.074996 2.4,1.825 0.55,0.750004 0.9167,1.574995 1.1,2.475 0.1833,0.900005 0.275,1.799996 0.275,2.7 0,2.00001 -0.05,3.949991 -0.15,5.85 -0.1,1.90001 -0.15,3.699992 -0.15,5.4 0,1.233339 0.05,2.399995 0.15,3.5 0.1,1.100006 0.2833,2.116662 0.55,3.05 l -2.95,0 -1.05,-3.5 -0.25,0 c -0.3,0.466669 -0.675,0.924998 -1.125,1.375 -0.45,0.450002 -0.9917,0.849998 -1.625,1.2 -0.6333,0.350002 -1.3667,0.641665 -2.2,0.875 -0.8333,0.233334 -1.7833,0.35 -2.85,0.35 -1.0667,0 -2.0583,-0.166665 -2.975,-0.5 -0.9167,-0.333335 -1.7083,-0.80833 -2.375,-1.425 -0.6667,-0.61667 -1.1917,-1.358329 -1.575,-2.225 -0.3833,-0.866671 -0.575,-1.849994 -0.575,-2.95 0,-1.466674 0.3,-2.691662 0.9,-3.675 0.6,-0.983338 1.4417,-1.766664 2.525,-2.35 1.0833,-0.583336 2.3833,-0.999999 3.9,-1.25 1.5167,-0.250001 3.1917,-0.375 5.025,-0.375 l 1.375,0 c 0.45,0 0.9083,0.03333 1.375,0.1 0.1,-1.000005 0.15,-1.899996 0.15,-2.7 0,-1.833343 -0.3667,-3.116663 -1.1,-3.85 -0.7333,-0.733337 -2.0667,-1.1 -4,-1.1 -0.5667,0 -1.175,0.04167 -1.825,0.125 -0.65,0.08333 -1.3167,0.199999 -2,0.35 -0.6833,0.150001 -1.3333,0.333332 -1.95,0.55 -0.6167,0.216668 -1.1583,0.458332 -1.625,0.725 l -1.25,-3 z m 7.1,20.05 c 0.9333,0 1.7667,-0.124999 2.5,-0.375 0.7333,-0.250001 1.3667,-0.566665 1.9,-0.95 0.5333,-0.383335 0.975,-0.808331 1.325,-1.275 0.35,-0.466669 0.6083,-0.916665 0.775,-1.35 l 0,-4.15 c -0.4667,-0.03333 -0.9417,-0.05833 -1.425,-0.075 -0.4833,-0.01667 -0.9583,-0.025 -1.425,-0.025 -1.0333,0 -2.0417,0.05833 -3.025,0.175 -0.9833,0.116667 -1.85,0.333332 -2.6,0.65 -0.75,0.316668 -1.35,0.749997 -1.8,1.3 -0.45,0.550003 -0.675,1.241663 -0.675,2.075 0,1.166672 0.4167,2.124996 1.25,2.875 0.8333,0.750004 1.9,1.125 3.2,1.125 z m 14.8,-21.9 3.9,0 0,-4.95 4,-1.15 0,6.1 6.8,0 0,3.5 -6.8,0 0,13.85 c 0,1.733342 0.2167,2.95833 0.65,3.675 0.4333,0.71667 1.1667,1.075 2.2,1.075 0.8667,0 1.6,-0.09167 2.2,-0.275 0.6,-0.183334 1.2667,-0.424998 2,-0.725 l 0.9,3.05 c -0.9,0.433336 -1.8833,0.783332 -2.95,1.05 -1.0667,0.266668 -2.2167,0.4 -3.45,0.4 -2.0333,0 -3.4667,-0.574994 -4.3,-1.725 -0.8333,-1.150006 -1.25,-3.074986 -1.25,-5.775 l 0,-14.6 -3.9,0 0,-3.5 z m 21.1,0 4,0 0,25 -4,0 0,-25 z M 1486,39.4 c 0,-0.76667 0.2583,-1.424997 0.775,-1.975 0.5167,-0.550003 1.175,-0.825 1.975,-0.825 0.8,0 1.4833,0.274997 2.05,0.825 0.5667,0.550003 0.85,1.20833 0.85,1.975 0,0.766671 -0.2833,1.399998 -0.85,1.9 -0.5667,0.500002 -1.25,0.75 -2.05,0.75 -0.8,0 -1.4583,-0.249998 -1.975,-0.75 -0.5167,-0.500002 -0.775,-1.133329 -0.775,-1.9 z m 12,20.1 c 0,-4.233354 0.9417,-7.474989 2.825,-9.725 1.8833,-2.250011 4.5916,-3.375 8.125,-3.375 1.8667,0 3.4917,0.30833 4.875,0.925 1.3833,0.61667 2.525,1.499994 3.425,2.65 0.9,1.150006 1.5667,2.533325 2,4.15 0.4333,1.616675 0.65,3.408324 0.65,5.375 0,4.233354 -0.9417,7.474989 -2.825,9.725 -1.8833,2.250011 -4.5916,3.375 -8.125,3.375 -1.8667,0 -3.4917,-0.30833 -4.875,-0.925 -1.3833,-0.61667 -2.525,-1.499994 -3.425,-2.65 -0.9,-1.150006 -1.5667,-2.533325 -2,-4.15 -0.4333,-1.616675 -0.65,-3.408324 -0.65,-5.375 z m 4.15,0 c 0,1.266673 0.125,2.483328 0.375,3.65 0.25,1.166672 0.6417,2.183329 1.175,3.05 0.5333,0.866671 1.2333,1.566664 2.1,2.1 0.8667,0.533336 1.9167,0.8 3.15,0.8 4.5334,0.03333 6.8,-3.166635 6.8,-9.6 0,-1.300007 -0.125,-2.533327 -0.375,-3.7 -0.25,-1.166673 -0.6417,-2.183329 -1.175,-3.05 -0.5333,-0.866671 -1.2333,-1.558331 -2.1,-2.075 -0.8667,-0.516669 -1.9167,-0.775 -3.15,-0.775 -4.5334,-0.03333 -6.8,3.166634 -6.8,9.6 z m 40.1,12.5 0,-14.25 c 0,-2.600013 -0.375,-4.558327 -1.125,-5.875 C 1540.375,50.558327 1539,49.9 1537,49.9 c -1.7667,0 -3.225,0.474995 -4.375,1.425 -1.15,0.950005 -1.9583,2.141659 -2.425,3.575 l 0,17.1 -4,0 0,-25 2.8,0 0.75,3.05 0.2,0 c 0.8,-1.066672 1.875,-1.941663 3.225,-2.625 1.35,-0.683337 2.9583,-1.025 4.825,-1.025 1.3667,0 2.5667,0.158332 3.6,0.475 1.0333,0.316668 1.8917,0.874996 2.575,1.675 0.6833,0.800004 1.2,1.874993 1.55,3.225 0.35,1.350007 0.525,3.058323 0.525,5.125 l 0,15.1 -4,0 z"
           id="Personalized-trainin-Copy-18"
           inkscape:connector-curvature="0" />
        <polygon
           id="Path-6-Copy-18"
           points="638,0 642,0 642,107 638,107 "
           style="fill-rule:nonzero" />
      </g>
    </g>
  </g>
</svg>
