<?xml version="1.0" encoding="UTF-8"?>
<svg width="1880px" height="613px" viewBox="0 0 1880 613" version="1.1" xmlns="http://www.w3.org/2000/svg" xmlns:xlink="http://www.w3.org/1999/xlink">
    <!-- Generator: Sketch 48.2 (47327) - http://www.bohemiancoding.com/sketch -->
    <title>Artboard 4</title>
    <desc>Created with Sketch.</desc>
    <defs></defs>
    <g id="Page-1" stroke="none" stroke-width="1" fill="none" fill-rule="evenodd">
        <g id="Artboard-4" fill="#000000">
            <g id="Group" transform="translate(191.000000, 262.000000)">
                <path d="M0.4,86 L0.4,16 L32.4,16 C41.3,16 48.2,18.5 52.8,23.1 C56.7,27 58.8,32.5 58.8,39.1 L58.8,39.3 C58.8,50.6 52.7,57.7 43.8,61 L60.9,86 L42.9,86 L27.9,63.6 L15.8,63.6 L15.8,86 L0.4,86 Z M15.8,50 L31.4,50 C38.9,50 43.2,46 43.2,40.1 L43.2,39.9 C43.2,33.3 38.6,29.9 31.1,29.9 L15.8,29.9 L15.8,50 Z M96.4,87.2 C79.8,87.2 67.5,74.9 67.5,59.5 L67.5,59.3 C67.5,43.9 79.9,31.4 96.6,31.4 C113.2,31.4 125.5,43.7 125.5,59.1 L125.5,59.3 C125.5,74.7 113.1,87.2 96.4,87.2 Z M96.6,74.1 C105.3,74.1 110.5,67.4 110.5,59.5 L110.5,59.3 C110.5,51.4 104.8,44.5 96.4,44.5 C87.7,44.5 82.5,51.2 82.5,59.1 L82.5,59.3 C82.5,67.2 88.2,74.1 96.6,74.1 Z M154.3,87 C142.8,87 136.1,79.4 136.1,67.1 L136.1,32.4 L151.3,32.4 L151.3,62.3 C151.3,69.5 154.7,73.2 160.5,73.2 C166.3,73.2 170,69.5 170,62.3 L170,32.4 L185.2,32.4 L185.2,86 L170,86 L170,78.4 C166.5,82.9 162,87 154.3,87 Z M216.9,86.9 C207.6,86.9 201.3,83.2 201.3,70.8 L201.3,45.4 L194.9,45.4 L194.9,32.4 L201.3,32.4 L201.3,18.7 L216.5,18.7 L216.5,32.4 L229.1,32.4 L229.1,45.4 L216.5,45.4 L216.5,68.3 C216.5,71.8 218,73.5 221.4,73.5 C224.2,73.5 226.7,72.8 228.9,71.6 L228.9,83.8 C225.7,85.7 222,86.9 216.9,86.9 Z M240.6,26.5 L240.6,13 L256.6,13 L256.6,26.5 L240.6,26.5 Z M241,86 L241,32.4 L256.2,32.4 L256.2,86 L241,86 Z M270.5,86 L270.5,32.4 L285.7,32.4 L285.7,40 C289.2,35.5 293.7,31.4 301.4,31.4 C312.9,31.4 319.6,39 319.6,51.3 L319.6,86 L304.4,86 L304.4,56.1 C304.4,48.9 301,45.2 295.2,45.2 C289.4,45.2 285.7,48.9 285.7,56.1 L285.7,86 L270.5,86 Z M358.2,87.2 C342.1,87.2 330.2,75.9 330.2,59.5 L330.2,59.3 C330.2,44 341.1,31.4 356.7,31.4 C374.6,31.4 382.8,45.3 382.8,60.5 C382.8,61.7 382.7,63.1 382.6,64.5 L345.3,64.5 C346.8,71.4 351.6,75 358.4,75 C363.5,75 367.2,73.4 371.4,69.5 L380.1,77.2 C375.1,83.4 367.9,87.2 358.2,87.2 Z M345.1,55 L368,55 C367.1,48.2 363.1,43.6 356.7,43.6 C350.4,43.6 346.3,48.1 345.1,55 Z M429.4,87.2 C407.6,87.2 392.6,71.9 392.6,51.2 L392.6,51 C392.6,31.1 408.1,14.8 429.3,14.8 C441.9,14.8 449.5,18.2 456.8,24.4 L447.1,36.1 C441.7,31.6 436.9,29 428.8,29 C417.6,29 408.7,38.9 408.7,50.8 L408.7,51 C408.7,63.8 417.5,73.2 429.9,73.2 C435.5,73.2 440.5,71.8 444.4,69 L444.4,59 L428.9,59 L428.9,45.7 L459.3,45.7 L459.3,76.1 C452.1,82.2 442.2,87.2 429.4,87.2 Z M497.9,87.2 C481.8,87.2 469.9,75.9 469.9,59.5 L469.9,59.3 C469.9,44 480.8,31.4 496.4,31.4 C514.3,31.4 522.5,45.3 522.5,60.5 C522.5,61.7 522.4,63.1 522.3,64.5 L485,64.5 C486.5,71.4 491.3,75 498.1,75 C503.2,75 506.9,73.4 511.1,69.5 L519.8,77.2 C514.8,83.4 507.6,87.2 497.9,87.2 Z M484.8,55 L507.7,55 C506.8,48.2 502.8,43.6 496.4,43.6 C490.1,43.6 486,48.1 484.8,55 Z M533.8,86 L533.8,32.4 L549,32.4 L549,40 C552.5,35.5 557,31.4 564.7,31.4 C576.2,31.4 582.9,39 582.9,51.3 L582.9,86 L567.7,86 L567.7,56.1 C567.7,48.9 564.3,45.2 558.5,45.2 C552.7,45.2 549,48.9 549,56.1 L549,86 L533.8,86 Z" id="RoutineGen"></path>
                <path d="M691.25,37.35 C692.516673,37.0499985 693.883326,36.8500005 695.35,36.75 C696.816674,36.6499995 698.266659,36.6 699.7,36.6 C701.233341,36.6 702.791659,36.7499985 704.375,37.05 C705.958341,37.3500015 707.399994,37.899996 708.7,38.7 C710.000007,39.500004 711.058329,40.599993 711.875,42 C712.691671,43.400007 713.1,45.1833225 713.1,47.35 C713.1,49.483344 712.71667,51.283326 711.95,52.75 C711.18333,54.216674 710.166673,55.4083287 708.9,56.325 C707.633327,57.2416712 706.183341,57.899998 704.55,58.3 C702.916659,58.700002 701.233342,58.9 699.5,58.9 L698.675,58.9 C698.291665,58.9 697.891669,58.8916667 697.475,58.875 C697.058331,58.8583332 696.650002,58.8333335 696.25,58.8 C695.849998,58.7666665 695.566667,58.7333335 695.4,58.7 L695.4,72 L691.25,72 L691.25,37.35 Z M699.8,40.2 C698.933329,40.2 698.100004,40.2166665 697.3,40.25 C696.499996,40.2833335 695.866669,40.366666 695.4,40.5 L695.4,55 C695.566667,55.066667 695.833331,55.1083332 696.2,55.125 C696.566668,55.1416667 696.949998,55.1583332 697.35,55.175 C697.750002,55.1916667 698.133332,55.2 698.5,55.2 L699.3,55.2 C700.433339,55.2 701.558328,55.0916677 702.675,54.875 C703.791672,54.6583322 704.799996,54.2666695 705.7,53.7 C706.600004,53.1333305 707.324997,52.3333385 707.875,51.3 C708.425003,50.2666615 708.7,48.950008 708.7,47.35 C708.7,45.9833265 708.441669,44.8416712 707.925,43.925 C707.408331,43.0083287 706.725004,42.2750027 705.875,41.725 C705.024996,41.1749972 704.066672,40.7833345 703,40.55 C701.933328,40.3166655 700.866672,40.2 699.8,40.2 Z M735.25,70 C734.249995,70.800004 732.991674,71.433331 731.475,71.9 C729.958326,72.366669 728.350009,72.6 726.65,72.6 C724.74999,72.6 723.100007,72.2916697 721.7,71.675 C720.299993,71.0583302 719.150005,70.1750057 718.25,69.025 C717.349995,67.8749942 716.683335,66.500008 716.25,64.9 C715.816665,63.299992 715.6,61.50001 715.6,59.5 C715.6,55.233312 716.549991,51.9833445 718.45,49.75 C720.35001,47.5166555 723.066649,46.4 726.6,46.4 C727.733339,46.4 728.866661,46.5249987 730,46.775 C731.133339,47.0250012 732.149996,47.4999965 733.05,48.2 C733.950004,48.9000035 734.683331,49.8916602 735.25,51.175 C735.816669,52.4583397 736.1,54.1499895 736.1,56.25 C736.1,57.3500055 736.000001,58.56666 735.8,59.9 L719.75,59.9 C719.75,61.366674 719.899999,62.666661 720.2,63.8 C720.500002,64.933339 720.966663,65.8916627 721.6,66.675 C722.233336,67.4583372 723.058328,68.0583312 724.075,68.475 C725.091672,68.8916687 726.333326,69.1 727.8,69.1 C728.933339,69.1 730.066661,68.900002 731.2,68.5 C732.333339,68.099998 733.183331,67.633336 733.75,67.1 L735.25,70 Z M726.65,49.9 C724.683324,49.9 723.108339,50.4166615 721.925,51.45 C720.741661,52.4833385 720.033335,54.2499875 719.8,56.75 L732.2,56.75 C732.2,54.216654 731.716671,52.4416717 730.75,51.425 C729.783329,50.4083282 728.416675,49.9 726.65,49.9 Z M754.2,50.85 C753.199995,50.516665 752.250005,50.35 751.35,50.35 C749.91666,50.35 748.783338,50.7416627 747.95,51.525 C747.116662,52.3083372 746.600001,53.299994 746.4,54.5 L746.4,72 L742.4,72 L742.4,47 L745.2,47 L745.95,50.05 L746.15,50.05 C746.783337,48.916661 747.541662,48.0416697 748.425,47.425 C749.308338,46.8083302 750.433327,46.5 751.8,46.5 C752.766672,46.5 753.849994,46.666665 755.05,47 L754.2,50.85 Z M770.4,65.2 C770.4,64.199995 770.100003,63.4166695 769.5,62.85 C768.899997,62.2833305 768.158338,61.8083352 767.275,61.425 C766.391662,61.0416647 765.425005,60.6750017 764.375,60.325 C763.324995,59.9749982 762.358338,59.5250027 761.475,58.975 C760.591662,58.4249972 759.850003,57.716671 759.25,56.85 C758.649997,55.983329 758.35,54.816674 758.35,53.35 C758.35,50.949988 759.033327,49.1916722 760.4,48.075 C761.766674,46.9583277 763.666655,46.4 766.1,46.4 C767.900009,46.4 769.408327,46.5583317 770.625,46.875 C771.841673,47.1916682 772.899996,47.5666645 773.8,48 L772.85,51.3 C772.083329,50.9333315 771.158339,50.6083347 770.075,50.325 C768.991661,50.0416652 767.833339,49.9 766.6,49.9 C765.133326,49.9 764.058337,50.1499975 763.375,50.65 C762.691663,51.1500025 762.35,52.0166605 762.35,53.25 C762.35,54.116671 762.649997,54.7916642 763.25,55.275 C763.850003,55.7583357 764.591662,56.1916647 765.475,56.575 C766.358338,56.9583352 767.324995,57.3333315 768.375,57.7 C769.425005,58.0666685 770.391662,58.549997 771.275,59.15 C772.158338,59.750003 772.899997,60.5083287 773.5,61.425 C774.100003,62.3416712 774.4,63.5499925 774.4,65.05 C774.4,66.116672 774.225002,67.116662 773.875,68.05 C773.524998,68.983338 772.983337,69.78333 772.25,70.45 C771.516663,71.11667 770.608339,71.6416647 769.525,72.025 C768.441661,72.4083352 767.166674,72.6 765.7,72.6 C763.799991,72.6 762.18334,72.4166685 760.85,72.05 C759.51666,71.6833315 758.400005,71.2500025 757.5,70.75 L758.7,67.35 C759.46667,67.7833355 760.46666,68.1833315 761.7,68.55 C762.933339,68.9166685 764.183327,69.1 765.45,69.1 C766.883341,69.1 768.066662,68.8166695 769,68.25 C769.933338,67.6833305 770.4,66.666674 770.4,65.2 Z M779.05,59.5 C779.05,55.2666455 779.991657,52.0250112 781.875,49.775 C783.758343,47.5249887 786.466649,46.4 790,46.4 C791.866676,46.4 793.49166,46.7083302 794.875,47.325 C796.25834,47.9416697 797.399996,48.8249942 798.3,49.975 C799.200004,51.1250057 799.866665,52.5083252 800.3,54.125 C800.733336,55.7416747 800.95,57.5333235 800.95,59.5 C800.95,63.7333545 800.008343,66.9749887 798.125,69.225 C796.241657,71.4750112 793.533351,72.6 790,72.6 C788.133324,72.6 786.50834,72.2916697 785.125,71.675 C783.74166,71.0583302 782.600004,70.1750057 781.7,69.025 C780.799996,67.8749942 780.133336,66.4916747 779.7,64.875 C779.266665,63.2583252 779.05,61.4666765 779.05,59.5 Z M783.2,59.5 C783.2,60.766673 783.324999,61.9833275 783.575,63.15 C783.825001,64.3166725 784.216664,65.333329 784.75,66.2 C785.283336,67.066671 785.983329,67.766664 786.85,68.3 C787.716671,68.833336 788.766661,69.1 790,69.1 C794.533356,69.1333335 796.8,65.9333655 796.8,59.5 C796.8,58.1999935 796.675001,56.9666725 796.425,55.8 C796.174999,54.6333275 795.783336,53.616671 795.25,52.75 C794.716664,51.883329 794.016671,51.1916692 793.15,50.675 C792.283329,50.1583307 791.23334,49.9 790,49.9 C785.466644,49.8666665 783.2,53.0666345 783.2,59.5 Z M823.3,72 L823.3,57.75 C823.3,55.149987 822.925004,53.1916732 822.175,51.875 C821.424996,50.5583267 820.05001,49.9 818.05,49.9 C816.283325,49.9 814.825006,50.3749952 813.675,51.325 C812.524994,52.2750047 811.716669,53.4666595 811.25,54.9 L811.25,72 L807.25,72 L807.25,47 L810.05,47 L810.8,50.05 L811,50.05 C811.800004,48.983328 812.874993,48.1083367 814.225,47.425 C815.575007,46.7416632 817.183324,46.4 819.05,46.4 C820.416674,46.4 821.616661,46.5583317 822.65,46.875 C823.683338,47.1916682 824.541663,47.749996 825.225,48.55 C825.908337,49.350004 826.424998,50.4249932 826.775,51.775 C827.125002,53.1250067 827.3,54.833323 827.3,56.9 L827.3,72 L823.3,72 Z M834.2,48.85 C835.466673,48.0833295 836.941658,47.5166685 838.625,47.15 C840.308342,46.7833315 842.066658,46.6 843.9,46.6 C845.633342,46.6 847.024995,46.833331 848.075,47.3 C849.125005,47.766669 849.924997,48.3749962 850.475,49.125 C851.025003,49.8750037 851.391666,50.6999955 851.575,51.6 C851.758334,52.5000045 851.85,53.3999955 851.85,54.3 C851.85,56.30001 851.8,58.2499905 851.7,60.15 C851.599999,62.0500095 851.55,63.8499915 851.55,65.55 C851.55,66.7833395 851.599999,67.9499945 851.7,69.05 C851.8,70.1500055 851.983332,71.166662 852.25,72.1 L849.3,72.1 L848.25,68.6 L848,68.6 C847.699998,69.066669 847.325002,69.5249977 846.875,69.975 C846.424998,70.4250022 845.883337,70.8249982 845.25,71.175 C844.616663,71.5250017 843.883337,71.8166655 843.05,72.05 C842.216662,72.2833345 841.266672,72.4 840.2,72.4 C839.133328,72.4 838.141671,72.233335 837.225,71.9 C836.308329,71.566665 835.51667,71.0916697 834.85,70.475 C834.18333,69.8583302 833.658335,69.116671 833.275,68.25 C832.891665,67.383329 832.7,66.4000055 832.7,65.3 C832.7,63.833326 832.999997,62.6083382 833.6,61.625 C834.200003,60.6416617 835.041661,59.8583362 836.125,59.275 C837.208339,58.6916637 838.508326,58.2750012 840.025,58.025 C841.541674,57.7749987 843.216658,57.65 845.05,57.65 L846.425,57.65 C846.875002,57.65 847.333331,57.683333 847.8,57.75 C847.900001,56.749995 847.95,55.850004 847.95,55.05 C847.95,53.2166575 847.583337,51.933337 846.85,51.2 C846.116663,50.466663 844.783343,50.1 842.85,50.1 C842.28333,50.1 841.675003,50.1416662 841.025,50.225 C840.374997,50.3083337 839.708337,50.4249992 839.025,50.575 C838.341663,50.7250007 837.69167,50.9083322 837.075,51.125 C836.45833,51.3416677 835.916669,51.583332 835.45,51.85 L834.2,48.85 Z M841.3,68.9 C842.233338,68.9 843.066663,68.7750012 843.8,68.525 C844.533337,68.2749987 845.166664,67.9583352 845.7,67.575 C846.233336,67.1916647 846.674998,66.766669 847.025,66.3 C847.375002,65.833331 847.633333,65.3833355 847.8,64.95 L847.8,60.8 C847.333331,60.7666665 846.858336,60.7416667 846.375,60.725 C845.891664,60.7083332 845.416669,60.7 844.95,60.7 C843.916661,60.7 842.908338,60.7583327 841.925,60.875 C840.941662,60.9916672 840.075004,61.2083317 839.325,61.525 C838.574996,61.8416682 837.975002,62.2749972 837.525,62.825 C837.074998,63.3750027 836.85,64.0666625 836.85,64.9 C836.85,66.0666725 837.266662,67.0249962 838.1,67.775 C838.933338,68.5250037 839.999994,68.9 841.3,68.9 Z M863.85,65.85 C863.85,67.0166725 864.049998,67.8499975 864.45,68.35 C864.850002,68.8500025 865.416663,69.1 866.15,69.1 C866.583335,69.1 867.049998,69.066667 867.55,69 C868.050003,68.933333 868.616663,68.7833345 869.25,68.55 L869.7,71.7 C869.166664,71.966668 868.425005,72.1833325 867.475,72.35 C866.524995,72.5166675 865.700004,72.6 865,72.6 C863.499992,72.6 862.266672,72.1750042 861.3,71.325 C860.333329,70.4749957 859.85,69.0333435 859.85,67 L859.85,37 L863.85,37 L863.85,65.85 Z M874.85,47 L878.85,47 L878.85,72 L874.85,72 L874.85,47 Z M874,39.4 C874,38.6333295 874.258331,37.9750027 874.775,37.425 C875.291669,36.8749972 875.949996,36.6 876.75,36.6 C877.550004,36.6 878.23333,36.8749972 878.8,37.425 C879.366669,37.9750027 879.65,38.6333295 879.65,39.4 C879.65,40.1666705 879.366669,40.7999975 878.8,41.3 C878.23333,41.8000025 877.550004,42.05 876.75,42.05 C875.949996,42.05 875.291669,41.8000025 874.775,41.3 C874.258331,40.7999975 874,40.1666705 874,39.4 Z M885.65,68.5 L897.2,52.6 L899.3,50.5 L885.65,50.5 L885.65,47 L903.45,47 L903.45,50.5 L891.8,66.55 L889.75,68.5 L903.45,68.5 L903.45,72 L885.65,72 L885.65,68.5 Z M927.2,70 C926.199995,70.800004 924.941674,71.433331 923.425,71.9 C921.908326,72.366669 920.300009,72.6 918.6,72.6 C916.699991,72.6 915.050007,72.2916697 913.65,71.675 C912.249993,71.0583302 911.100005,70.1750057 910.2,69.025 C909.299996,67.8749942 908.633336,66.500008 908.2,64.9 C907.766664,63.299992 907.55,61.50001 907.55,59.5 C907.55,55.233312 908.49999,51.9833445 910.4,49.75 C912.300009,47.5166555 915.016649,46.4 918.55,46.4 C919.683339,46.4 920.816661,46.5249987 921.95,46.775 C923.083339,47.0250012 924.099995,47.4999965 925,48.2 C925.900005,48.9000035 926.633331,49.8916602 927.2,51.175 C927.76667,52.4583397 928.05,54.1499895 928.05,56.25 C928.05,57.3500055 927.950001,58.56666 927.75,59.9 L911.7,59.9 C911.7,61.366674 911.849999,62.666661 912.15,63.8 C912.450002,64.933339 912.916664,65.8916627 913.55,66.675 C914.183336,67.4583372 915.008328,68.0583312 916.025,68.475 C917.041672,68.8916687 918.283326,69.1 919.75,69.1 C920.883339,69.1 922.016661,68.900002 923.15,68.5 C924.283339,68.099998 925.133331,67.633336 925.7,67.1 L927.2,70 Z M918.6,49.9 C916.633323,49.9 915.058339,50.4166615 913.875,51.45 C912.691661,52.4833385 911.983334,54.2499875 911.75,56.75 L924.15,56.75 C924.15,54.216654 923.666672,52.4416717 922.7,51.425 C921.733328,50.4083282 920.366675,49.9 918.6,49.9 Z M953.55,63.4 C953.55,65.1000085 953.566666,66.6416597 953.6,68.025 C953.633333,69.4083402 953.783332,70.76666 954.05,72.1 L951.35,72.1 L950.35,68.55 L950.15,68.55 C949.48333,69.7166725 948.516673,70.6833295 947.25,71.45 C945.983327,72.2166705 944.500009,72.6 942.8,72.6 C939.46665,72.6 936.991675,71.5500105 935.375,69.45 C933.758325,67.3499895 932.95,64.066689 932.95,59.6 C932.95,55.333312 933.958323,52.0916777 935.975,49.875 C937.991677,47.6583222 940.766649,46.55 944.3,46.55 C945.53334,46.55 946.50833,46.616666 947.225,46.75 C947.94167,46.883334 948.716662,47.0999985 949.55,47.4 L949.55,37 L953.55,37 L953.55,63.4 Z M943.45,69.1 C945.150009,69.1 946.499995,68.6583377 947.5,67.775 C948.500005,66.8916622 949.183331,65.550009 949.55,63.75 L949.55,51.35 C948.949997,50.883331 948.266671,50.550001 947.5,50.35 C946.73333,50.149999 945.716673,50.05 944.45,50.05 C942.149989,50.05 940.350007,50.8083257 939.05,52.325 C937.749994,53.8416742 937.1,56.26665 937.1,59.6 C937.1,60.9666735 937.208332,62.2333275 937.425,63.4 C937.641668,64.5666725 937.999998,65.5666625 938.5,66.4 C939.000002,67.2333375 939.658329,67.8916642 940.475,68.375 C941.291671,68.8583357 942.283328,69.1 943.45,69.1 Z M971.3,47 L975.2,47 L975.2,42.05 L979.2,40.9 L979.2,47 L986,47 L986,50.5 L979.2,50.5 L979.2,64.35 C979.2,66.083342 979.416665,67.3083297 979.85,68.025 C980.283336,68.7416702 981.016662,69.1 982.05,69.1 C982.916671,69.1 983.649997,69.0083342 984.25,68.825 C984.850003,68.6416657 985.516663,68.4000015 986.25,68.1 L987.15,71.15 C986.249996,71.5833355 985.266672,71.933332 984.2,72.2 C983.133328,72.466668 981.98334,72.6 980.75,72.6 C978.716656,72.6 977.283338,72.0250057 976.45,70.875 C975.616663,69.7249942 975.2,67.8000135 975.2,65.1 L975.2,50.5 L971.3,50.5 L971.3,47 Z M1003.35,50.85 C1002.35,50.516665 1001.4,50.35 1000.5,50.35 C999.06666,50.35 997.933338,50.7416627 997.1,51.525 C996.266663,52.3083372 995.750001,53.299994 995.55,54.5 L995.55,72 L991.55,72 L991.55,47 L994.35,47 L995.1,50.05 L995.3,50.05 C995.933336,48.916661 996.691662,48.0416697 997.575,47.425 C998.458338,46.8083302 999.583327,46.5 1000.95,46.5 C1001.91667,46.5 1002.99999,46.666665 1004.2,47 L1003.35,50.85 Z M1008.15,48.85 C1009.41667,48.0833295 1010.89166,47.5166685 1012.575,47.15 C1014.25834,46.7833315 1016.01666,46.6 1017.85,46.6 C1019.58334,46.6 1020.97499,46.833331 1022.025,47.3 C1023.07501,47.766669 1023.875,48.3749962 1024.425,49.125 C1024.975,49.8750037 1025.34167,50.6999955 1025.525,51.6 C1025.70833,52.5000045 1025.8,53.3999955 1025.8,54.3 C1025.8,56.30001 1025.75,58.2499905 1025.65,60.15 C1025.55,62.0500095 1025.5,63.8499915 1025.5,65.55 C1025.5,66.7833395 1025.55,67.9499945 1025.65,69.05 C1025.75,70.1500055 1025.93333,71.166662 1026.2,72.1 L1023.25,72.1 L1022.2,68.6 L1021.95,68.6 C1021.65,69.066669 1021.275,69.5249977 1020.825,69.975 C1020.375,70.4250022 1019.83334,70.8249982 1019.2,71.175 C1018.56666,71.5250017 1017.83334,71.8166655 1017,72.05 C1016.16666,72.2833345 1015.21667,72.4 1014.15,72.4 C1013.08333,72.4 1012.09167,72.233335 1011.175,71.9 C1010.25833,71.566665 1009.46667,71.0916697 1008.8,70.475 C1008.13333,69.8583302 1007.60834,69.116671 1007.225,68.25 C1006.84166,67.383329 1006.65,66.4000055 1006.65,65.3 C1006.65,63.833326 1006.95,62.6083382 1007.55,61.625 C1008.15,60.6416617 1008.99166,59.8583362 1010.075,59.275 C1011.15834,58.6916637 1012.45833,58.2750012 1013.975,58.025 C1015.49167,57.7749987 1017.16666,57.65 1019,57.65 L1020.375,57.65 C1020.825,57.65 1021.28333,57.683333 1021.75,57.75 C1021.85,56.749995 1021.9,55.850004 1021.9,55.05 C1021.9,53.2166575 1021.53334,51.933337 1020.8,51.2 C1020.06666,50.466663 1018.73334,50.1 1016.8,50.1 C1016.23333,50.1 1015.625,50.1416662 1014.975,50.225 C1014.325,50.3083337 1013.65834,50.4249992 1012.975,50.575 C1012.29166,50.7250007 1011.64167,50.9083322 1011.025,51.125 C1010.40833,51.3416677 1009.86667,51.583332 1009.4,51.85 L1008.15,48.85 Z M1015.25,68.9 C1016.18334,68.9 1017.01666,68.7750012 1017.75,68.525 C1018.48334,68.2749987 1019.11666,67.9583352 1019.65,67.575 C1020.18334,67.1916647 1020.625,66.766669 1020.975,66.3 C1021.325,65.833331 1021.58333,65.3833355 1021.75,64.95 L1021.75,60.8 C1021.28333,60.7666665 1020.80834,60.7416667 1020.325,60.725 C1019.84166,60.7083332 1019.36667,60.7 1018.9,60.7 C1017.86666,60.7 1016.85834,60.7583327 1015.875,60.875 C1014.89166,60.9916672 1014.025,61.2083317 1013.275,61.525 C1012.525,61.8416682 1011.925,62.2749972 1011.475,62.825 C1011.025,63.3750027 1010.8,64.0666625 1010.8,64.9 C1010.8,66.0666725 1011.21666,67.0249962 1012.05,67.775 C1012.88334,68.5250037 1013.94999,68.9 1015.25,68.9 Z M1034.2,47 L1038.2,47 L1038.2,72 L1034.2,72 L1034.2,47 Z M1033.35,39.4 C1033.35,38.6333295 1033.60833,37.9750027 1034.125,37.425 C1034.64167,36.8749972 1035.3,36.6 1036.1,36.6 C1036.9,36.6 1037.58333,36.8749972 1038.15,37.425 C1038.71667,37.9750027 1039,38.6333295 1039,39.4 C1039,40.1666705 1038.71667,40.7999975 1038.15,41.3 C1037.58333,41.8000025 1036.9,42.05 1036.1,42.05 C1035.3,42.05 1034.64167,41.8000025 1034.125,41.3 C1033.60833,40.7999975 1033.35,40.1666705 1033.35,39.4 Z M1062.8,72 L1062.8,57.75 C1062.8,55.149987 1062.425,53.1916732 1061.675,51.875 C1060.925,50.5583267 1059.55001,49.9 1057.55,49.9 C1055.78332,49.9 1054.32501,50.3749952 1053.175,51.325 C1052.02499,52.2750047 1051.21667,53.4666595 1050.75,54.9 L1050.75,72 L1046.75,72 L1046.75,47 L1049.55,47 L1050.3,50.05 L1050.5,50.05 C1051.3,48.983328 1052.37499,48.1083367 1053.725,47.425 C1055.07501,46.7416632 1056.68332,46.4 1058.55,46.4 C1059.91667,46.4 1061.11666,46.5583317 1062.15,46.875 C1063.18334,47.1916682 1064.04166,47.749996 1064.725,48.55 C1065.40834,49.350004 1065.925,50.4249932 1066.275,51.775 C1066.625,53.1250067 1066.8,54.833323 1066.8,56.9 L1066.8,72 L1062.8,72 Z M1074.95,47 L1078.95,47 L1078.95,72 L1074.95,72 L1074.95,47 Z M1074.1,39.4 C1074.1,38.6333295 1074.35833,37.9750027 1074.875,37.425 C1075.39167,36.8749972 1076.05,36.6 1076.85,36.6 C1077.65,36.6 1078.33333,36.8749972 1078.9,37.425 C1079.46667,37.9750027 1079.75,38.6333295 1079.75,39.4 C1079.75,40.1666705 1079.46667,40.7999975 1078.9,41.3 C1078.33333,41.8000025 1077.65,42.05 1076.85,42.05 C1076.05,42.05 1075.39167,41.8000025 1074.875,41.3 C1074.35833,40.7999975 1074.1,40.1666705 1074.1,39.4 Z M1103.55,72 L1103.55,57.75 C1103.55,55.149987 1103.175,53.1916732 1102.425,51.875 C1101.675,50.5583267 1100.30001,49.9 1098.3,49.9 C1096.53332,49.9 1095.07501,50.3749952 1093.925,51.325 C1092.77499,52.2750047 1091.96667,53.4666595 1091.5,54.9 L1091.5,72 L1087.5,72 L1087.5,47 L1090.3,47 L1091.05,50.05 L1091.25,50.05 C1092.05,48.983328 1093.12499,48.1083367 1094.475,47.425 C1095.82501,46.7416632 1097.43332,46.4 1099.3,46.4 C1100.66667,46.4 1101.86666,46.5583317 1102.9,46.875 C1103.93334,47.1916682 1104.79166,47.749996 1105.475,48.55 C1106.15834,49.350004 1106.675,50.4249932 1107.025,51.775 C1107.375,53.1250067 1107.55,54.833323 1107.55,56.9 L1107.55,72 L1103.55,72 Z M1134,73.15 C1134,76.3833495 1133.14168,78.766659 1131.425,80.3 C1129.70832,81.833341 1127.16668,82.6 1123.8,82.6 C1121.79999,82.6 1120.19167,82.4750012 1118.975,82.225 C1117.75833,81.9749987 1116.71667,81.650002 1115.85,81.25 L1116.9,77.85 C1117.66667,78.1500015 1118.51666,78.433332 1119.45,78.7 C1120.38334,78.966668 1121.59999,79.1 1123.1,79.1 C1124.50001,79.1 1125.64166,78.9750012 1126.525,78.725 C1127.40834,78.4749987 1128.11666,78.0583362 1128.65,77.475 C1129.18334,76.8916637 1129.55,76.1416712 1129.75,75.225 C1129.95,74.3083287 1130.05,73.216673 1130.05,71.95 L1130.05,69.55 L1129.85,69.55 C1129.18333,70.5166715 1128.33334,71.2583307 1127.3,71.775 C1126.26666,72.2916692 1124.91667,72.55 1123.25,72.55 C1119.88332,72.55 1117.40834,71.5000105 1115.825,69.4 C1114.24166,67.2999895 1113.45,64.0333555 1113.45,59.6 C1113.45,55.333312 1114.46666,52.0916777 1116.5,49.875 C1118.53334,47.6583222 1121.53331,46.55 1125.5,46.55 C1127.40001,46.55 1129.02499,46.6999985 1130.375,47 C1131.72501,47.3000015 1132.93333,47.649998 1134,48.05 L1134,73.15 Z M1123.95,69.05 C1125.65001,69.05 1126.98333,68.6250042 1127.95,67.775 C1128.91667,66.9249957 1129.6,65.600009 1130,63.8 L1130,51 C1128.66666,50.3666635 1126.96668,50.05 1124.9,50.05 C1122.63332,50.05 1120.85001,50.816659 1119.55,52.35 C1118.24999,53.883341 1117.6,56.283317 1117.6,59.55 C1117.6,60.950007 1117.71667,62.2333275 1117.95,63.4 C1118.18333,64.5666725 1118.55,65.5666625 1119.05,66.4 C1119.55,67.2333375 1120.2,67.883331 1121,68.35 C1121.8,68.816669 1122.78333,69.05 1123.95,69.05 Z M1166.85,50.85 C1165.85,50.516665 1164.9,50.35 1164,50.35 C1162.56666,50.35 1161.43334,50.7416627 1160.6,51.525 C1159.76666,52.3083372 1159.25,53.299994 1159.05,54.5 L1159.05,72 L1155.05,72 L1155.05,47 L1157.85,47 L1158.6,50.05 L1158.8,50.05 C1159.43334,48.916661 1160.19166,48.0416697 1161.075,47.425 C1161.95834,46.8083302 1163.08333,46.5 1164.45,46.5 C1165.41667,46.5 1166.49999,46.666665 1167.7,47 L1166.85,50.85 Z M1170.65,59.5 C1170.65,55.2666455 1171.59166,52.0250112 1173.475,49.775 C1175.35834,47.5249887 1178.06665,46.4 1181.6,46.4 C1183.46668,46.4 1185.09166,46.7083302 1186.475,47.325 C1187.85834,47.9416697 1189,48.8249942 1189.9,49.975 C1190.8,51.1250057 1191.46666,52.5083252 1191.9,54.125 C1192.33334,55.7416747 1192.55,57.5333235 1192.55,59.5 C1192.55,63.7333545 1191.60834,66.9749887 1189.725,69.225 C1187.84166,71.4750112 1185.13335,72.6 1181.6,72.6 C1179.73332,72.6 1178.10834,72.2916697 1176.725,71.675 C1175.34166,71.0583302 1174.2,70.1750057 1173.3,69.025 C1172.4,67.8749942 1171.73334,66.4916747 1171.3,64.875 C1170.86666,63.2583252 1170.65,61.4666765 1170.65,59.5 Z M1174.8,59.5 C1174.8,60.766673 1174.925,61.9833275 1175.175,63.15 C1175.425,64.3166725 1175.81666,65.333329 1176.35,66.2 C1176.88334,67.066671 1177.58333,67.766664 1178.45,68.3 C1179.31667,68.833336 1180.36666,69.1 1181.6,69.1 C1186.13336,69.1333335 1188.4,65.9333655 1188.4,59.5 C1188.4,58.1999935 1188.275,56.9666725 1188.025,55.8 C1187.775,54.6333275 1187.38334,53.616671 1186.85,52.75 C1186.31666,51.883329 1185.61667,51.1916692 1184.75,50.675 C1183.88333,50.1583307 1182.83334,49.9 1181.6,49.9 C1177.06664,49.8666665 1174.8,53.0666345 1174.8,59.5 Z M1202.45,47 L1202.45,61.25 C1202.45,62.5500065 1202.525,63.6916617 1202.675,64.675 C1202.825,65.6583382 1203.08333,66.4749967 1203.45,67.125 C1203.81667,67.7750032 1204.31666,68.266665 1204.95,68.6 C1205.58334,68.933335 1206.38333,69.1 1207.35,69.1 C1208.25,69.1 1209.05,68.9583347 1209.75,68.675 C1210.45,68.3916652 1211.075,68.0000025 1211.625,67.5 C1212.175,66.9999975 1212.65833,66.4250032 1213.075,65.775 C1213.49167,65.1249967 1213.83333,64.433337 1214.1,63.7 L1214.1,47 L1218.1,47 L1218.1,64.9 C1218.1,66.100006 1218.14167,67.3416602 1218.225,68.625 C1218.30833,69.9083397 1218.45,71.0333285 1218.65,72 L1215.9,72 L1214.9,68.05 L1214.65,68.05 C1213.88333,69.3500065 1212.85001,70.433329 1211.55,71.3 C1210.24999,72.166671 1208.60001,72.6 1206.6,72.6 C1205.26666,72.6 1204.09167,72.4416682 1203.075,72.125 C1202.05833,71.8083317 1201.20834,71.250004 1200.525,70.45 C1199.84166,69.649996 1199.325,68.5750067 1198.975,67.225 C1198.625,65.8749932 1198.45,64.166677 1198.45,62.1 L1198.45,47 L1202.45,47 Z M1222.5,47 L1226.4,47 L1226.4,42.05 L1230.4,40.9 L1230.4,47 L1237.2,47 L1237.2,50.5 L1230.4,50.5 L1230.4,64.35 C1230.4,66.083342 1230.61666,67.3083297 1231.05,68.025 C1231.48334,68.7416702 1232.21666,69.1 1233.25,69.1 C1234.11667,69.1 1234.85,69.0083342 1235.45,68.825 C1236.05,68.6416657 1236.71666,68.4000015 1237.45,68.1 L1238.35,71.15 C1237.45,71.5833355 1236.46667,71.933332 1235.4,72.2 C1234.33333,72.466668 1233.18334,72.6 1231.95,72.6 C1229.91666,72.6 1228.48334,72.0250057 1227.65,70.875 C1226.81666,69.7249942 1226.4,67.8000135 1226.4,65.1 L1226.4,50.5 L1222.5,50.5 L1222.5,47 Z M1243.6,47 L1247.6,47 L1247.6,72 L1243.6,72 L1243.6,47 Z M1242.75,39.4 C1242.75,38.6333295 1243.00833,37.9750027 1243.525,37.425 C1244.04167,36.8749972 1244.7,36.6 1245.5,36.6 C1246.3,36.6 1246.98333,36.8749972 1247.55,37.425 C1248.11667,37.9750027 1248.4,38.6333295 1248.4,39.4 C1248.4,40.1666705 1248.11667,40.7999975 1247.55,41.3 C1246.98333,41.8000025 1246.3,42.05 1245.5,42.05 C1244.7,42.05 1244.04167,41.8000025 1243.525,41.3 C1243.00833,40.7999975 1242.75,40.1666705 1242.75,39.4 Z M1272.2,72 L1272.2,57.75 C1272.2,55.149987 1271.825,53.1916732 1271.075,51.875 C1270.325,50.5583267 1268.95001,49.9 1266.95,49.9 C1265.18332,49.9 1263.72501,50.3749952 1262.575,51.325 C1261.42499,52.2750047 1260.61667,53.4666595 1260.15,54.9 L1260.15,72 L1256.15,72 L1256.15,47 L1258.95,47 L1259.7,50.05 L1259.9,50.05 C1260.7,48.983328 1261.77499,48.1083367 1263.125,47.425 C1264.47501,46.7416632 1266.08332,46.4 1267.95,46.4 C1269.31667,46.4 1270.51666,46.5583317 1271.55,46.875 C1272.58334,47.1916682 1273.44166,47.749996 1274.125,48.55 C1274.80834,49.350004 1275.325,50.4249932 1275.675,51.775 C1276.025,53.1250067 1276.2,54.833323 1276.2,56.9 L1276.2,72 L1272.2,72 Z M1301.75,70 C1300.75,70.800004 1299.49167,71.433331 1297.975,71.9 C1296.45833,72.366669 1294.85001,72.6 1293.15,72.6 C1291.24999,72.6 1289.60001,72.2916697 1288.2,71.675 C1286.79999,71.0583302 1285.65,70.1750057 1284.75,69.025 C1283.85,67.8749942 1283.18334,66.500008 1282.75,64.9 C1282.31666,63.299992 1282.1,61.50001 1282.1,59.5 C1282.1,55.233312 1283.04999,51.9833445 1284.95,49.75 C1286.85001,47.5166555 1289.56665,46.4 1293.1,46.4 C1294.23334,46.4 1295.36666,46.5249987 1296.5,46.775 C1297.63334,47.0250012 1298.65,47.4999965 1299.55,48.2 C1300.45,48.9000035 1301.18333,49.8916602 1301.75,51.175 C1302.31667,52.4583397 1302.6,54.1499895 1302.6,56.25 C1302.6,57.3500055 1302.5,58.56666 1302.3,59.9 L1286.25,59.9 C1286.25,61.366674 1286.4,62.666661 1286.7,63.8 C1287,64.933339 1287.46666,65.8916627 1288.1,66.675 C1288.73334,67.4583372 1289.55833,68.0583312 1290.575,68.475 C1291.59167,68.8916687 1292.83333,69.1 1294.3,69.1 C1295.43334,69.1 1296.56666,68.900002 1297.7,68.5 C1298.83334,68.099998 1299.68333,67.633336 1300.25,67.1 L1301.75,70 Z M1293.15,49.9 C1291.18332,49.9 1289.60834,50.4166615 1288.425,51.45 C1287.24166,52.4833385 1286.53333,54.2499875 1286.3,56.75 L1298.7,56.75 C1298.7,54.216654 1298.21667,52.4416717 1297.25,51.425 C1296.28333,50.4083282 1294.91668,49.9 1293.15,49.9 Z M1341.4,73.15 C1341.4,76.3833495 1340.54168,78.766659 1338.825,80.3 C1337.10832,81.833341 1334.56668,82.6 1331.2,82.6 C1329.19999,82.6 1327.59167,82.4750012 1326.375,82.225 C1325.15833,81.9749987 1324.11667,81.650002 1323.25,81.25 L1324.3,77.85 C1325.06667,78.1500015 1325.91666,78.433332 1326.85,78.7 C1327.78334,78.966668 1328.99999,79.1 1330.5,79.1 C1331.90001,79.1 1333.04166,78.9750012 1333.925,78.725 C1334.80834,78.4749987 1335.51666,78.0583362 1336.05,77.475 C1336.58334,76.8916637 1336.95,76.1416712 1337.15,75.225 C1337.35,74.3083287 1337.45,73.216673 1337.45,71.95 L1337.45,69.55 L1337.25,69.55 C1336.58333,70.5166715 1335.73334,71.2583307 1334.7,71.775 C1333.66666,72.2916692 1332.31668,72.55 1330.65,72.55 C1327.28332,72.55 1324.80834,71.5000105 1323.225,69.4 C1321.64166,67.2999895 1320.85,64.0333555 1320.85,59.6 C1320.85,55.333312 1321.86666,52.0916777 1323.9,49.875 C1325.93334,47.6583222 1328.93331,46.55 1332.9,46.55 C1334.80001,46.55 1336.42499,46.6999985 1337.775,47 C1339.12501,47.3000015 1340.33333,47.649998 1341.4,48.05 L1341.4,73.15 Z M1331.35,69.05 C1333.05001,69.05 1334.38333,68.6250042 1335.35,67.775 C1336.31667,66.9249957 1337,65.600009 1337.4,63.8 L1337.4,51 C1336.06666,50.3666635 1334.36668,50.05 1332.3,50.05 C1330.03332,50.05 1328.25001,50.816659 1326.95,52.35 C1325.64999,53.883341 1325,56.283317 1325,59.55 C1325,60.950007 1325.11667,62.2333275 1325.35,63.4 C1325.58333,64.5666725 1325.95,65.5666625 1326.45,66.4 C1326.95,67.2333375 1327.6,67.883331 1328.4,68.35 C1329.2,68.816669 1330.18333,69.05 1331.35,69.05 Z M1367.35,70 C1366.35,70.800004 1365.09167,71.433331 1363.575,71.9 C1362.05833,72.366669 1360.45001,72.6 1358.75,72.6 C1356.84999,72.6 1355.20001,72.2916697 1353.8,71.675 C1352.39999,71.0583302 1351.25,70.1750057 1350.35,69.025 C1349.45,67.8749942 1348.78334,66.500008 1348.35,64.9 C1347.91666,63.299992 1347.7,61.50001 1347.7,59.5 C1347.7,55.233312 1348.64999,51.9833445 1350.55,49.75 C1352.45001,47.5166555 1355.16665,46.4 1358.7,46.4 C1359.83334,46.4 1360.96666,46.5249987 1362.1,46.775 C1363.23334,47.0250012 1364.25,47.4999965 1365.15,48.2 C1366.05,48.9000035 1366.78333,49.8916602 1367.35,51.175 C1367.91667,52.4583397 1368.2,54.1499895 1368.2,56.25 C1368.2,57.3500055 1368.1,58.56666 1367.9,59.9 L1351.85,59.9 C1351.85,61.366674 1352,62.666661 1352.3,63.8 C1352.6,64.933339 1353.06666,65.8916627 1353.7,66.675 C1354.33334,67.4583372 1355.15833,68.0583312 1356.175,68.475 C1357.19167,68.8916687 1358.43333,69.1 1359.9,69.1 C1361.03334,69.1 1362.16666,68.900002 1363.3,68.5 C1364.43334,68.099998 1365.28333,67.633336 1365.85,67.1 L1367.35,70 Z M1358.75,49.9 C1356.78332,49.9 1355.20834,50.4166615 1354.025,51.45 C1352.84166,52.4833385 1352.13333,54.2499875 1351.9,56.75 L1364.3,56.75 C1364.3,54.216654 1363.81667,52.4416717 1362.85,51.425 C1361.88333,50.4083282 1360.51668,49.9 1358.75,49.9 Z M1390.55,72 L1390.55,57.75 C1390.55,55.149987 1390.175,53.1916732 1389.425,51.875 C1388.675,50.5583267 1387.30001,49.9 1385.3,49.9 C1383.53332,49.9 1382.07501,50.3749952 1380.925,51.325 C1379.77499,52.2750047 1378.96667,53.4666595 1378.5,54.9 L1378.5,72 L1374.5,72 L1374.5,47 L1377.3,47 L1378.05,50.05 L1378.25,50.05 C1379.05,48.983328 1380.12499,48.1083367 1381.475,47.425 C1382.82501,46.7416632 1384.43332,46.4 1386.3,46.4 C1387.66667,46.4 1388.86666,46.5583317 1389.9,46.875 C1390.93334,47.1916682 1391.79166,47.749996 1392.475,48.55 C1393.15834,49.350004 1393.675,50.4249932 1394.025,51.775 C1394.375,53.1250067 1394.55,54.833323 1394.55,56.9 L1394.55,72 L1390.55,72 Z M1420.1,70 C1419.1,70.800004 1417.84167,71.433331 1416.325,71.9 C1414.80833,72.366669 1413.20001,72.6 1411.5,72.6 C1409.59999,72.6 1407.95001,72.2916697 1406.55,71.675 C1405.14999,71.0583302 1404,70.1750057 1403.1,69.025 C1402.2,67.8749942 1401.53334,66.500008 1401.1,64.9 C1400.66666,63.299992 1400.45,61.50001 1400.45,59.5 C1400.45,55.233312 1401.39999,51.9833445 1403.3,49.75 C1405.20001,47.5166555 1407.91665,46.4 1411.45,46.4 C1412.58334,46.4 1413.71666,46.5249987 1414.85,46.775 C1415.98334,47.0250012 1417,47.4999965 1417.9,48.2 C1418.8,48.9000035 1419.53333,49.8916602 1420.1,51.175 C1420.66667,52.4583397 1420.95,54.1499895 1420.95,56.25 C1420.95,57.3500055 1420.85,58.56666 1420.65,59.9 L1404.6,59.9 C1404.6,61.366674 1404.75,62.666661 1405.05,63.8 C1405.35,64.933339 1405.81666,65.8916627 1406.45,66.675 C1407.08334,67.4583372 1407.90833,68.0583312 1408.925,68.475 C1409.94167,68.8916687 1411.18333,69.1 1412.65,69.1 C1413.78334,69.1 1414.91666,68.900002 1416.05,68.5 C1417.18334,68.099998 1418.03333,67.633336 1418.6,67.1 L1420.1,70 Z M1411.5,49.9 C1409.53332,49.9 1407.95834,50.4166615 1406.775,51.45 C1405.59166,52.4833385 1404.88333,54.2499875 1404.65,56.75 L1417.05,56.75 C1417.05,54.216654 1416.56667,52.4416717 1415.6,51.425 C1414.63333,50.4083282 1413.26668,49.9 1411.5,49.9 Z M1439.05,50.85 C1438.05,50.516665 1437.1,50.35 1436.2,50.35 C1434.76666,50.35 1433.63334,50.7416627 1432.8,51.525 C1431.96666,52.3083372 1431.45,53.299994 1431.25,54.5 L1431.25,72 L1427.25,72 L1427.25,47 L1430.05,47 L1430.8,50.05 L1431,50.05 C1431.63334,48.916661 1432.39166,48.0416697 1433.275,47.425 C1434.15834,46.8083302 1435.28333,46.5 1436.65,46.5 C1437.61667,46.5 1438.69999,46.666665 1439.9,47 L1439.05,50.85 Z M1443.85,48.85 C1445.11667,48.0833295 1446.59166,47.5166685 1448.275,47.15 C1449.95834,46.7833315 1451.71666,46.6 1453.55,46.6 C1455.28334,46.6 1456.67499,46.833331 1457.725,47.3 C1458.77501,47.766669 1459.575,48.3749962 1460.125,49.125 C1460.675,49.8750037 1461.04167,50.6999955 1461.225,51.6 C1461.40833,52.5000045 1461.5,53.3999955 1461.5,54.3 C1461.5,56.30001 1461.45,58.2499905 1461.35,60.15 C1461.25,62.0500095 1461.2,63.8499915 1461.2,65.55 C1461.2,66.7833395 1461.25,67.9499945 1461.35,69.05 C1461.45,70.1500055 1461.63333,71.166662 1461.9,72.1 L1458.95,72.1 L1457.9,68.6 L1457.65,68.6 C1457.35,69.066669 1456.975,69.5249977 1456.525,69.975 C1456.075,70.4250022 1455.53334,70.8249982 1454.9,71.175 C1454.26666,71.5250017 1453.53334,71.8166655 1452.7,72.05 C1451.86666,72.2833345 1450.91667,72.4 1449.85,72.4 C1448.78333,72.4 1447.79167,72.233335 1446.875,71.9 C1445.95833,71.566665 1445.16667,71.0916697 1444.5,70.475 C1443.83333,69.8583302 1443.30834,69.116671 1442.925,68.25 C1442.54166,67.383329 1442.35,66.4000055 1442.35,65.3 C1442.35,63.833326 1442.65,62.6083382 1443.25,61.625 C1443.85,60.6416617 1444.69166,59.8583362 1445.775,59.275 C1446.85834,58.6916637 1448.15833,58.2750012 1449.675,58.025 C1451.19167,57.7749987 1452.86666,57.65 1454.7,57.65 L1456.075,57.65 C1456.525,57.65 1456.98333,57.683333 1457.45,57.75 C1457.55,56.749995 1457.6,55.850004 1457.6,55.05 C1457.6,53.2166575 1457.23334,51.933337 1456.5,51.2 C1455.76666,50.466663 1454.43334,50.1 1452.5,50.1 C1451.93333,50.1 1451.325,50.1416662 1450.675,50.225 C1450.025,50.3083337 1449.35834,50.4249992 1448.675,50.575 C1447.99166,50.7250007 1447.34167,50.9083322 1446.725,51.125 C1446.10833,51.3416677 1445.56667,51.583332 1445.1,51.85 L1443.85,48.85 Z M1450.95,68.9 C1451.88334,68.9 1452.71666,68.7750012 1453.45,68.525 C1454.18334,68.2749987 1454.81666,67.9583352 1455.35,67.575 C1455.88334,67.1916647 1456.325,66.766669 1456.675,66.3 C1457.025,65.833331 1457.28333,65.3833355 1457.45,64.95 L1457.45,60.8 C1456.98333,60.7666665 1456.50834,60.7416667 1456.025,60.725 C1455.54166,60.7083332 1455.06667,60.7 1454.6,60.7 C1453.56666,60.7 1452.55834,60.7583327 1451.575,60.875 C1450.59166,60.9916672 1449.725,61.2083317 1448.975,61.525 C1448.225,61.8416682 1447.625,62.2749972 1447.175,62.825 C1446.725,63.3750027 1446.5,64.0666625 1446.5,64.9 C1446.5,66.0666725 1446.91666,67.0249962 1447.75,67.775 C1448.58334,68.5250037 1449.64999,68.9 1450.95,68.9 Z M1465.75,47 L1469.65,47 L1469.65,42.05 L1473.65,40.9 L1473.65,47 L1480.45,47 L1480.45,50.5 L1473.65,50.5 L1473.65,64.35 C1473.65,66.083342 1473.86666,67.3083297 1474.3,68.025 C1474.73334,68.7416702 1475.46666,69.1 1476.5,69.1 C1477.36667,69.1 1478.1,69.0083342 1478.7,68.825 C1479.3,68.6416657 1479.96666,68.4000015 1480.7,68.1 L1481.6,71.15 C1480.7,71.5833355 1479.71667,71.933332 1478.65,72.2 C1477.58333,72.466668 1476.43334,72.6 1475.2,72.6 C1473.16666,72.6 1471.73334,72.0250057 1470.9,70.875 C1470.06666,69.7249942 1469.65,67.8000135 1469.65,65.1 L1469.65,50.5 L1465.75,50.5 L1465.75,47 Z M1486.85,47 L1490.85,47 L1490.85,72 L1486.85,72 L1486.85,47 Z M1486,39.4 C1486,38.6333295 1486.25833,37.9750027 1486.775,37.425 C1487.29167,36.8749972 1487.95,36.6 1488.75,36.6 C1489.55,36.6 1490.23333,36.8749972 1490.8,37.425 C1491.36667,37.9750027 1491.65,38.6333295 1491.65,39.4 C1491.65,40.1666705 1491.36667,40.7999975 1490.8,41.3 C1490.23333,41.8000025 1489.55,42.05 1488.75,42.05 C1487.95,42.05 1487.29167,41.8000025 1486.775,41.3 C1486.25833,40.7999975 1486,40.1666705 1486,39.4 Z M1498,59.5 C1498,55.2666455 1498.94166,52.0250112 1500.825,49.775 C1502.70834,47.5249887 1505.41665,46.4 1508.95,46.4 C1510.81668,46.4 1512.44166,46.7083302 1513.825,47.325 C1515.20834,47.9416697 1516.35,48.8249942 1517.25,49.975 C1518.15,51.1250057 1518.81666,52.5083252 1519.25,54.125 C1519.68334,55.7416747 1519.9,57.5333235 1519.9,59.5 C1519.9,63.7333545 1518.95834,66.9749887 1517.075,69.225 C1515.19166,71.4750112 1512.48335,72.6 1508.95,72.6 C1507.08332,72.6 1505.45834,72.2916697 1504.075,71.675 C1502.69166,71.0583302 1501.55,70.1750057 1500.65,69.025 C1499.75,67.8749942 1499.08334,66.4916747 1498.65,64.875 C1498.21666,63.2583252 1498,61.4666765 1498,59.5 Z M1502.15,59.5 C1502.15,60.766673 1502.275,61.9833275 1502.525,63.15 C1502.775,64.3166725 1503.16666,65.333329 1503.7,66.2 C1504.23334,67.066671 1504.93333,67.766664 1505.8,68.3 C1506.66667,68.833336 1507.71666,69.1 1508.95,69.1 C1513.48336,69.1333335 1515.75,65.9333655 1515.75,59.5 C1515.75,58.1999935 1515.625,56.9666725 1515.375,55.8 C1515.125,54.6333275 1514.73334,53.616671 1514.2,52.75 C1513.66666,51.883329 1512.96667,51.1916692 1512.1,50.675 C1511.23333,50.1583307 1510.18334,49.9 1508.95,49.9 C1504.41664,49.8666665 1502.15,53.0666345 1502.15,59.5 Z M1542.25,72 L1542.25,57.75 C1542.25,55.149987 1541.875,53.1916732 1541.125,51.875 C1540.375,50.5583267 1539.00001,49.9 1537,49.9 C1535.23332,49.9 1533.77501,50.3749952 1532.625,51.325 C1531.47499,52.2750047 1530.66667,53.4666595 1530.2,54.9 L1530.2,72 L1526.2,72 L1526.2,47 L1529,47 L1529.75,50.05 L1529.95,50.05 C1530.75,48.983328 1531.82499,48.1083367 1533.175,47.425 C1534.52501,46.7416632 1536.13332,46.4 1538,46.4 C1539.36667,46.4 1540.56666,46.5583317 1541.6,46.875 C1542.63334,47.1916682 1543.49166,47.749996 1544.175,48.55 C1544.85834,49.350004 1545.375,50.4249932 1545.725,51.775 C1546.075,53.1250067 1546.25,54.833323 1546.25,56.9 L1546.25,72 L1542.25,72 Z" id="Personalized-trainin-Copy-18"></path>
                <polygon id="Path-6-Copy-18" fill-rule="nonzero" points="638 0 642 0 642 107 638 107"></polygon>
            </g>
        </g>
    </g>
</svg>